<?xml version="1.0" encoding="utf-8" ?>
<svg baseProfile="full" height="6.0cm" version="1.1" width="22.3830090895cm" xmlns="http://www.w3.org/2000/svg" xmlns:ev="http://www.w3.org/2001/xml-events" xmlns:xlink="http://www.w3.org/1999/xlink"><defs /><g font-size="14"><text x="21.3830090895cm" y="5.0cm">0.0°</text><text x="0.0cm" y="5.0cm">0.0°</text><text x="21.3830090895cm" y="3.66666666667cm">20.0°</text><text x="0.0cm" y="3.66666666667cm">20.0°</text><text x="21.3830090895cm" y="2.33333333333cm">40.0°</text><text x="0.0cm" y="2.33333333333cm">40.0°</text><text x="21.3830090895cm" y="1.0cm">60.0°</text><text x="0.0cm" y="1.0cm">60.0°</text></g><g id="vertical" stroke="black"><line x1="11.1915045447cm" x2="11.1915045447cm" y1="1.0cm" y2="1.08cm" /><line x1="11.1915045447cm" x2="11.1915045447cm" y1="1.08cm" y2="1.16cm" /><line x1="11.1915045447cm" x2="11.1915045447cm" y1="1.16cm" y2="1.24cm" /><line x1="11.1915045447cm" x2="11.1915045447cm" y1="1.24cm" y2="1.32cm" /><line x1="11.1915045447cm" x2="11.1915045447cm" y1="1.32cm" y2="1.4cm" /><line x1="11.1915045447cm" x2="11.1915045447cm" y1="1.4cm" y2="1.48cm" /><line x1="11.1915045447cm" x2="11.1915045447cm" y1="1.48cm" y2="1.56cm" /><line x1="11.1915045447cm" x2="11.1915045447cm" y1="1.56cm" y2="1.64cm" /><line x1="11.1915045447cm" x2="11.1915045447cm" y1="1.64cm" y2="1.72cm" /><line x1="11.1915045447cm" x2="11.1915045447cm" y1="1.72cm" y2="1.8cm" /><line x1="11.1915045447cm" x2="11.1915045447cm" y1="1.8cm" y2="1.88cm" /><line x1="11.1915045447cm" x2="11.1915045447cm" y1="1.88cm" y2="1.96cm" /><line x1="11.1915045447cm" x2="11.1915045447cm" y1="1.96cm" y2="2.04cm" /><line x1="11.1915045447cm" x2="11.1915045447cm" y1="2.04cm" y2="2.12cm" /><line x1="11.1915045447cm" x2="11.1915045447cm" y1="2.12cm" y2="2.2cm" /><line x1="11.1915045447cm" x2="11.1915045447cm" y1="2.2cm" y2="2.28cm" /><line x1="11.1915045447cm" x2="11.1915045447cm" y1="2.28cm" y2="2.36cm" /><line x1="11.1915045447cm" x2="11.1915045447cm" y1="2.36cm" y2="2.44cm" /><line x1="11.1915045447cm" x2="11.1915045447cm" y1="2.44cm" y2="2.52cm" /><line x1="11.1915045447cm" x2="11.1915045447cm" y1="2.52cm" y2="2.6cm" /><line x1="11.1915045447cm" x2="11.1915045447cm" y1="2.6cm" y2="2.68cm" /><line x1="11.1915045447cm" x2="11.1915045447cm" y1="2.68cm" y2="2.76cm" /><line x1="11.1915045447cm" x2="11.1915045447cm" y1="2.76cm" y2="2.84cm" /><line x1="11.1915045447cm" x2="11.1915045447cm" y1="2.84cm" y2="2.92cm" /><line x1="11.1915045447cm" x2="11.1915045447cm" y1="2.92cm" y2="3.0cm" /><line x1="11.1915045447cm" x2="11.1915045447cm" y1="3.0cm" y2="3.08cm" /><line x1="11.1915045447cm" x2="11.1915045447cm" y1="3.08cm" y2="3.16cm" /><line x1="11.1915045447cm" x2="11.1915045447cm" y1="3.16cm" y2="3.24cm" /><line x1="11.1915045447cm" x2="11.1915045447cm" y1="3.24cm" y2="3.32cm" /><line x1="11.1915045447cm" x2="11.1915045447cm" y1="3.32cm" y2="3.4cm" /><line x1="11.1915045447cm" x2="11.1915045447cm" y1="3.4cm" y2="3.48cm" /><line x1="11.1915045447cm" x2="11.1915045447cm" y1="3.48cm" y2="3.56cm" /><line x1="11.1915045447cm" x2="11.1915045447cm" y1="3.56cm" y2="3.64cm" /><line x1="11.1915045447cm" x2="11.1915045447cm" y1="3.64cm" y2="3.72cm" /><line x1="11.1915045447cm" x2="11.1915045447cm" y1="3.72cm" y2="3.8cm" /><line x1="11.1915045447cm" x2="11.1915045447cm" y1="3.8cm" y2="3.88cm" /><line x1="11.1915045447cm" x2="11.1915045447cm" y1="3.88cm" y2="3.96cm" /><line x1="11.1915045447cm" x2="11.1915045447cm" y1="3.96cm" y2="4.04cm" /><line x1="11.1915045447cm" x2="11.1915045447cm" y1="4.04cm" y2="4.12cm" /><line x1="11.1915045447cm" x2="11.1915045447cm" y1="4.12cm" y2="4.2cm" /><line x1="11.1915045447cm" x2="11.1915045447cm" y1="4.2cm" y2="4.28cm" /><line x1="11.1915045447cm" x2="11.1915045447cm" y1="4.28cm" y2="4.36cm" /><line x1="11.1915045447cm" x2="11.1915045447cm" y1="4.36cm" y2="4.44cm" /><line x1="11.1915045447cm" x2="11.1915045447cm" y1="4.44cm" y2="4.52cm" /><line x1="11.1915045447cm" x2="11.1915045447cm" y1="4.52cm" y2="4.6cm" /><line x1="11.1915045447cm" x2="11.1915045447cm" y1="4.6cm" y2="4.68cm" /><line x1="11.1915045447cm" x2="11.1915045447cm" y1="4.68cm" y2="4.76cm" /><line x1="11.1915045447cm" x2="11.1915045447cm" y1="4.76cm" y2="4.84cm" /><line x1="11.1915045447cm" x2="11.1915045447cm" y1="4.84cm" y2="4.92cm" /><line x1="11.1915045447cm" x2="11.1915045447cm" y1="4.92cm" y2="5.0cm" /><line x1="21.3830090895cm" x2="21.221047404cm" y1="5.0cm" y2="4.92cm" /><line x1="21.221047404cm" x2="21.065921918cm" y1="4.92cm" y2="4.84cm" /><line x1="21.065921918cm" x2="20.9173301144cm" y1="4.84cm" y2="4.76cm" /><line x1="20.9173301144cm" x2="20.7749887499cm" y1="4.76cm" y2="4.68cm" /><line x1="20.7749887499cm" x2="20.6386325249cm" y1="4.68cm" y2="4.6cm" /><line x1="20.6386325249cm" x2="20.5080128679cm" y1="4.6cm" y2="4.52cm" /><line x1="20.5080128679cm" x2="20.3828968246cm" y1="4.52cm" y2="4.44cm" /><line x1="20.3828968246cm" x2="20.2630660412cm" y1="4.44cm" y2="4.36cm" /><line x1="20.2630660412cm" x2="20.1483158345cm" y1="4.36cm" y2="4.28cm" /><line x1="20.1483158345cm" x2="20.0384543405cm" y1="4.28cm" y2="4.2cm" /><line x1="20.0384543405cm" x2="19.933301736cm" y1="4.2cm" y2="4.12cm" /><line x1="19.933301736cm" x2="19.832689526cm" y1="4.12cm" y2="4.04cm" /><line x1="19.832689526cm" x2="19.7364598925cm" y1="4.04cm" y2="3.96cm" /><line x1="19.7364598925cm" x2="19.6444650999cm" y1="3.96cm" y2="3.88cm" /><line x1="19.6444650999cm" x2="19.5565669526cm" y1="3.88cm" y2="3.8cm" /><line x1="19.5565669526cm" x2="19.4726363007cm" y1="3.8cm" y2="3.72cm" /><line x1="19.4726363007cm" x2="19.392552592cm" y1="3.72cm" y2="3.64cm" /><line x1="19.392552592cm" x2="19.3162034657cm" y1="3.64cm" y2="3.56cm" /><line x1="19.3162034657cm" x2="19.2434843865cm" y1="3.56cm" y2="3.48cm" /><line x1="19.2434843865cm" x2="19.1742983164cm" y1="3.48cm" y2="3.4cm" /><line x1="19.1742983164cm" x2="19.1085554235cm" y1="3.4cm" y2="3.32cm" /><line x1="19.1085554235cm" x2="19.0461728246cm" y1="3.32cm" y2="3.24cm" /><line x1="19.0461728246cm" x2="18.9870743618cm" y1="3.24cm" y2="3.16cm" /><line x1="18.9870743618cm" x2="18.9311904123cm" y1="3.16cm" y2="3.08cm" /><line x1="18.9311904123cm" x2="18.8784577305cm" y1="3.08cm" y2="3.0cm" /><line x1="18.8784577305cm" x2="18.8288193221cm" y1="3.0cm" y2="2.92cm" /><line x1="18.8288193221cm" x2="18.7822243514cm" y1="2.92cm" y2="2.84cm" /><line x1="18.7822243514cm" x2="18.738628081cm" y1="2.84cm" y2="2.76cm" /><line x1="18.738628081cm" x2="18.6979918463cm" y1="2.76cm" y2="2.68cm" /><line x1="18.6979918463cm" x2="18.6602830657cm" y1="2.68cm" y2="2.6cm" /><line x1="18.6602830657cm" x2="18.6254752879cm" y1="2.6cm" y2="2.52cm" /><line x1="18.6254752879cm" x2="18.5935482804cm" y1="2.52cm" y2="2.44cm" /><line x1="18.5935482804cm" x2="18.5644881603cm" y1="2.44cm" y2="2.36cm" /><line x1="18.5644881603cm" x2="18.5382875742cm" y1="2.36cm" y2="2.28cm" /><line x1="18.5382875742cm" x2="18.5149459294cm" y1="2.28cm" y2="2.2cm" /><line x1="18.5149459294cm" x2="18.4944696841cm" y1="2.2cm" y2="2.12cm" /><line x1="18.4944696841cm" x2="18.4768727042cm" y1="2.12cm" y2="2.04cm" /><line x1="18.4768727042cm" x2="18.462176694cm" y1="2.04cm" y2="1.96cm" /><line x1="18.462176694cm" x2="18.4504117136cm" y1="1.96cm" y2="1.88cm" /><line x1="18.4504117136cm" x2="18.4416167957cm" y1="1.88cm" y2="1.8cm" /><line x1="18.4416167957cm" x2="18.4358406769cm" y1="1.8cm" y2="1.72cm" /><line x1="18.4358406769cm" x2="18.4331426651cm" y1="1.72cm" y2="1.64cm" /><line x1="18.4331426651cm" x2="18.4335936661cm" y1="1.64cm" y2="1.56cm" /><line x1="18.4335936661cm" x2="18.4372774004cm" y1="1.56cm" y2="1.48cm" /><line x1="18.4372774004cm" x2="18.4442918469cm" y1="1.48cm" y2="1.4cm" /><line x1="18.4442918469cm" x2="18.4547509603cm" y1="1.4cm" y2="1.32cm" /><line x1="18.4547509603cm" x2="18.4687867212cm" y1="1.32cm" y2="1.24cm" /><line x1="18.4687867212cm" x2="18.4865515933cm" y1="1.24cm" y2="1.16cm" /><line x1="18.4865515933cm" x2="18.5082214805cm" y1="1.16cm" y2="1.08cm" /><line x1="18.5082214805cm" x2="18.5339993083cm" y1="1.08cm" y2="1.0cm" /><line x1="1.0cm" x2="1.16196168549cm" y1="5.0cm" y2="4.92cm" /><line x1="1.16196168549cm" x2="1.3170871715cm" y1="4.92cm" y2="4.84cm" /><line x1="1.3170871715cm" x2="1.46567897505cm" y1="4.84cm" y2="4.76cm" /><line x1="1.46567897505cm" x2="1.60802033951cm" y1="4.76cm" y2="4.68cm" /><line x1="1.60802033951cm" x2="1.74437656456cm" y1="4.68cm" y2="4.6cm" /><line x1="1.74437656456cm" x2="1.87499622157cm" y1="4.6cm" y2="4.52cm" /><line x1="1.87499622157cm" x2="2.00011226488cm" y1="4.52cm" y2="4.44cm" /><line x1="2.00011226488cm" x2="2.11994304823cm" y1="4.44cm" y2="4.36cm" /><line x1="2.11994304823cm" x2="2.23469325494cm" y1="4.36cm" y2="4.28cm" /><line x1="2.23469325494cm" x2="2.34455474891cm" y1="4.28cm" y2="4.2cm" /><line x1="2.34455474891cm" x2="2.44970735342cm" y1="4.2cm" y2="4.12cm" /><line x1="2.44970735342cm" x2="2.55031956347cm" y1="4.12cm" y2="4.04cm" /><line x1="2.55031956347cm" x2="2.64654919698cm" y1="4.04cm" y2="3.96cm" /><line x1="2.64654919698cm" x2="2.73854398955cm" y1="3.96cm" y2="3.88cm" /><line x1="2.73854398955cm" x2="2.82644213688cm" y1="3.88cm" y2="3.8cm" /><line x1="2.82644213688cm" x2="2.91037278874cm" y1="3.8cm" y2="3.72cm" /><line x1="2.91037278874cm" x2="2.99045649741cm" y1="3.72cm" y2="3.64cm" /><line x1="2.99045649741cm" x2="3.06680562372cm" y1="3.64cm" y2="3.56cm" /><line x1="3.06680562372cm" x2="3.139524703cm" y1="3.56cm" y2="3.48cm" /><line x1="3.139524703cm" x2="3.20871077305cm" y1="3.48cm" y2="3.4cm" /><line x1="3.20871077305cm" x2="3.27445366591cm" y1="3.4cm" y2="3.32cm" /><line x1="3.27445366591cm" x2="3.33683626486cm" y1="3.32cm" y2="3.24cm" /><line x1="3.33683626486cm" x2="3.3959347277cm" y1="3.24cm" y2="3.16cm" /><line x1="3.3959347277cm" x2="3.45181867719cm" y1="3.16cm" y2="3.08cm" /><line x1="3.45181867719cm" x2="3.50455135901cm" y1="3.08cm" y2="3.0cm" /><line x1="3.50455135901cm" x2="3.55418976735cm" y1="3.0cm" y2="2.92cm" /><line x1="3.55418976735cm" x2="3.60078473806cm" y1="2.92cm" y2="2.84cm" /><line x1="3.60078473806cm" x2="3.64438100848cm" y1="2.84cm" y2="2.76cm" /><line x1="3.64438100848cm" x2="3.68501724313cm" y1="2.76cm" y2="2.68cm" /><line x1="3.68501724313cm" x2="3.72272602375cm" y1="2.68cm" y2="2.6cm" /><line x1="3.72272602375cm" x2="3.75753380151cm" y1="2.6cm" y2="2.52cm" /><line x1="3.75753380151cm" x2="3.7894608091cm" y1="2.52cm" y2="2.44cm" /><line x1="3.7894608091cm" x2="3.81852092918cm" y1="2.44cm" y2="2.36cm" /><line x1="3.81852092918cm" x2="3.84472151527cm" y1="2.36cm" y2="2.28cm" /><line x1="3.84472151527cm" x2="3.8680631601cm" y1="2.28cm" y2="2.2cm" /><line x1="3.8680631601cm" x2="3.88853940533cm" y1="2.2cm" y2="2.12cm" /><line x1="3.88853940533cm" x2="3.90613638525cm" y1="2.12cm" y2="2.04cm" /><line x1="3.90613638525cm" x2="3.92083239549cm" y1="2.04cm" y2="1.96cm" /><line x1="3.92083239549cm" x2="3.93259737582cm" y1="1.96cm" y2="1.88cm" /><line x1="3.93259737582cm" x2="3.94139229372cm" y1="1.88cm" y2="1.8cm" /><line x1="3.94139229372cm" x2="3.94716841253cm" y1="1.8cm" y2="1.72cm" /><line x1="3.94716841253cm" x2="3.94986642438cm" y1="1.72cm" y2="1.64cm" /><line x1="3.94986642438cm" x2="3.94941542338cm" y1="1.64cm" y2="1.56cm" /><line x1="3.94941542338cm" x2="3.94573168904cm" y1="1.56cm" y2="1.48cm" /><line x1="3.94573168904cm" x2="3.93871724256cm" y1="1.48cm" y2="1.4cm" /><line x1="3.93871724256cm" x2="3.92825812919cm" y1="1.4cm" y2="1.32cm" /><line x1="3.92825812919cm" x2="3.91422236821cm" y1="1.32cm" y2="1.24cm" /><line x1="3.91422236821cm" x2="3.89645749618cm" y1="1.24cm" y2="1.16cm" /><line x1="3.89645749618cm" x2="3.87478760899cm" y1="1.16cm" y2="1.08cm" /><line x1="3.87478760899cm" x2="3.84900978111cm" y1="1.08cm" y2="1.0cm" /><line x1="17.9858409079cm" x2="17.8778664509cm" y1="5.0cm" y2="4.92cm" /><line x1="17.8778664509cm" x2="17.7744494602cm" y1="4.92cm" y2="4.84cm" /><line x1="17.7744494602cm" x2="17.6753882578cm" y1="4.84cm" y2="4.76cm" /><line x1="17.6753882578cm" x2="17.5804940149cm" y1="4.76cm" y2="4.68cm" /><line x1="17.5804940149cm" x2="17.4895898648cm" y1="4.68cm" y2="4.6cm" /><line x1="17.4895898648cm" x2="17.4025100935cm" y1="4.6cm" y2="4.52cm" /><line x1="17.4025100935cm" x2="17.319099398cm" y1="4.52cm" y2="4.44cm" /><line x1="17.319099398cm" x2="17.2392122091cm" y1="4.44cm" y2="4.36cm" /><line x1="17.2392122091cm" x2="17.1627120713cm" y1="4.36cm" y2="4.28cm" /><line x1="17.1627120713cm" x2="17.0894710753cm" y1="4.28cm" y2="4.2cm" /><line x1="17.0894710753cm" x2="17.0193693389cm" y1="4.2cm" y2="4.12cm" /><line x1="17.0193693389cm" x2="16.9522945322cm" y1="4.12cm" y2="4.04cm" /><line x1="16.9522945322cm" x2="16.8881414432cm" y1="4.04cm" y2="3.96cm" /><line x1="16.8881414432cm" x2="16.8268115815cm" y1="3.96cm" y2="3.88cm" /><line x1="16.8268115815cm" x2="16.7682128166cm" y1="3.88cm" y2="3.8cm" /><line x1="16.7682128166cm" x2="16.7122590487cm" y1="3.8cm" y2="3.72cm" /><line x1="16.7122590487cm" x2="16.6588699096cm" y1="3.72cm" y2="3.64cm" /><line x1="16.6588699096cm" x2="16.6079704921cm" y1="3.64cm" y2="3.56cm" /><line x1="16.6079704921cm" x2="16.5594911059cm" y1="3.56cm" y2="3.48cm" /><line x1="16.5594911059cm" x2="16.5133670592cm" y1="3.48cm" y2="3.4cm" /><line x1="16.5133670592cm" x2="16.4695384639cm" y1="3.4cm" y2="3.32cm" /><line x1="16.4695384639cm" x2="16.4279500646cm" y1="3.32cm" y2="3.24cm" /><line x1="16.4279500646cm" x2="16.3885510894cm" y1="3.24cm" y2="3.16cm" /><line x1="16.3885510894cm" x2="16.3512951231cm" y1="3.16cm" y2="3.08cm" /><line x1="16.3512951231cm" x2="16.3161400019cm" y1="3.08cm" y2="3.0cm" /><line x1="16.3161400019cm" x2="16.2830477296cm" y1="3.0cm" y2="2.92cm" /><line x1="16.2830477296cm" x2="16.2519844158cm" y1="2.92cm" y2="2.84cm" /><line x1="16.2519844158cm" x2="16.2229202356cm" y1="2.84cm" y2="2.76cm" /><line x1="16.2229202356cm" x2="16.1958294125cm" y1="2.76cm" y2="2.68cm" /><line x1="16.1958294125cm" x2="16.1706902254cm" y1="2.68cm" y2="2.6cm" /><line x1="16.1706902254cm" x2="16.1474850402cm" y1="2.6cm" y2="2.52cm" /><line x1="16.1474850402cm" x2="16.1262003685cm" y1="2.52cm" y2="2.44cm" /><line x1="16.1262003685cm" x2="16.1068269551cm" y1="2.44cm" y2="2.36cm" /><line x1="16.1068269551cm" x2="16.0893598977cm" y1="2.36cm" y2="2.28cm" /><line x1="16.0893598977cm" x2="16.0737988011cm" y1="2.28cm" y2="2.2cm" /><line x1="16.0737988011cm" x2="16.060147971cm" y1="2.2cm" y2="2.12cm" /><line x1="16.060147971cm" x2="16.048416651cm" y1="2.12cm" y2="2.04cm" /><line x1="16.048416651cm" x2="16.0386193109cm" y1="2.04cm" y2="1.96cm" /><line x1="16.0386193109cm" x2="16.0307759907cm" y1="1.96cm" y2="1.88cm" /><line x1="16.0307759907cm" x2="16.0249127121cm" y1="1.88cm" y2="1.8cm" /><line x1="16.0249127121cm" x2="16.0210619662cm" y1="1.8cm" y2="1.72cm" /><line x1="16.0210619662cm" x2="16.0192632916cm" y1="1.72cm" y2="1.64cm" /><line x1="16.0192632916cm" x2="16.019563959cm" y1="1.64cm" y2="1.56cm" /><line x1="16.019563959cm" x2="16.0220197819cm" y1="1.56cm" y2="1.48cm" /><line x1="16.0220197819cm" x2="16.0266960795cm" y1="1.48cm" y2="1.4cm" /><line x1="16.0266960795cm" x2="16.0336688218cm" y1="1.4cm" y2="1.32cm" /><line x1="16.0336688218cm" x2="16.0430259957cm" y1="1.32cm" y2="1.24cm" /><line x1="16.0430259957cm" x2="16.0548692438cm" y1="1.24cm" y2="1.16cm" /><line x1="16.0548692438cm" x2="16.0693158352cm" y1="1.16cm" y2="1.08cm" /><line x1="16.0693158352cm" x2="16.0865010538cm" y1="1.08cm" y2="1.0cm" /><line x1="4.39716818158cm" x2="4.50514263857cm" y1="5.0cm" y2="4.92cm" /><line x1="4.50514263857cm" x2="4.60855962924cm" y1="4.92cm" y2="4.84cm" /><line x1="4.60855962924cm" x2="4.70762083161cm" y1="4.84cm" y2="4.76cm" /><line x1="4.70762083161cm" x2="4.80251507458cm" y1="4.76cm" y2="4.68cm" /><line x1="4.80251507458cm" x2="4.89341922462cm" y1="4.68cm" y2="4.6cm" /><line x1="4.89341922462cm" x2="4.98049899596cm" y1="4.6cm" y2="4.52cm" /><line x1="4.98049899596cm" x2="5.06390969149cm" y1="4.52cm" y2="4.44cm" /><line x1="5.06390969149cm" x2="5.1437968804cm" y1="4.44cm" y2="4.36cm" /><line x1="5.1437968804cm" x2="5.2202970182cm" y1="4.36cm" y2="4.28cm" /><line x1="5.2202970182cm" x2="5.29353801418cm" y1="4.28cm" y2="4.2cm" /><line x1="5.29353801418cm" x2="5.36363975052cm" y1="4.2cm" y2="4.12cm" /><line x1="5.36363975052cm" x2="5.43071455722cm" y1="4.12cm" y2="4.04cm" /><line x1="5.43071455722cm" x2="5.49486764623cm" y1="4.04cm" y2="3.96cm" /><line x1="5.49486764623cm" x2="5.55619750794cm" y1="3.96cm" y2="3.88cm" /><line x1="5.55619750794cm" x2="5.61479627283cm" y1="3.88cm" y2="3.8cm" /><line x1="5.61479627283cm" x2="5.67075004074cm" y1="3.8cm" y2="3.72cm" /><line x1="5.67075004074cm" x2="5.72413917985cm" y1="3.72cm" y2="3.64cm" /><line x1="5.72413917985cm" x2="5.77503859739cm" y1="3.64cm" y2="3.56cm" /><line x1="5.77503859739cm" x2="5.82351798358cm" y1="3.56cm" y2="3.48cm" /><line x1="5.82351798358cm" x2="5.86964203028cm" y1="3.48cm" y2="3.4cm" /><line x1="5.86964203028cm" x2="5.91347062552cm" y1="3.4cm" y2="3.32cm" /><line x1="5.91347062552cm" x2="5.95505902482cm" y1="3.32cm" y2="3.24cm" /><line x1="5.95505902482cm" x2="5.99445800004cm" y1="3.24cm" y2="3.16cm" /><line x1="5.99445800004cm" x2="6.03171396637cm" y1="3.16cm" y2="3.08cm" /><line x1="6.03171396637cm" x2="6.06686908758cm" y1="3.08cm" y2="3.0cm" /><line x1="6.06686908758cm" x2="6.09996135981cm" y1="3.0cm" y2="2.92cm" /><line x1="6.09996135981cm" x2="6.13102467362cm" y1="2.92cm" y2="2.84cm" /><line x1="6.13102467362cm" x2="6.16008885389cm" y1="2.84cm" y2="2.76cm" /><line x1="6.16008885389cm" x2="6.187179677cm" y1="2.76cm" y2="2.68cm" /><line x1="6.187179677cm" x2="6.21231886407cm" y1="2.68cm" y2="2.6cm" /><line x1="6.21231886407cm" x2="6.23552404925cm" y1="2.6cm" y2="2.52cm" /><line x1="6.23552404925cm" x2="6.25680872098cm" y1="2.52cm" y2="2.44cm" /><line x1="6.25680872098cm" x2="6.27618213437cm" y1="2.44cm" y2="2.36cm" /><line x1="6.27618213437cm" x2="6.29364919176cm" y1="2.36cm" y2="2.28cm" /><line x1="6.29364919176cm" x2="6.30921028831cm" y1="2.28cm" y2="2.2cm" /><line x1="6.30921028831cm" x2="6.32286111846cm" y1="2.2cm" y2="2.12cm" /><line x1="6.32286111846cm" x2="6.33459243841cm" y1="2.12cm" y2="2.04cm" /><line x1="6.33459243841cm" x2="6.34438977857cm" y1="2.04cm" y2="1.96cm" /><line x1="6.34438977857cm" x2="6.35223309879cm" y1="1.96cm" y2="1.88cm" /><line x1="6.35223309879cm" x2="6.35809637739cm" y1="1.88cm" y2="1.8cm" /><line x1="6.35809637739cm" x2="6.36194712326cm" y1="1.8cm" y2="1.72cm" /><line x1="6.36194712326cm" x2="6.36374579783cm" y1="1.72cm" y2="1.64cm" /><line x1="6.36374579783cm" x2="6.36344513049cm" y1="1.64cm" y2="1.56cm" /><line x1="6.36344513049cm" x2="6.3609893076cm" y1="1.56cm" y2="1.48cm" /><line x1="6.3609893076cm" x2="6.35631300995cm" y1="1.48cm" y2="1.4cm" /><line x1="6.35631300995cm" x2="6.3493402677cm" y1="1.4cm" y2="1.32cm" /><line x1="6.3493402677cm" x2="6.33998309371cm" y1="1.32cm" y2="1.24cm" /><line x1="6.33998309371cm" x2="6.3281398457cm" y1="1.24cm" y2="1.16cm" /><line x1="6.3281398457cm" x2="6.31369325424cm" y1="1.16cm" y2="1.08cm" /><line x1="6.31369325424cm" x2="6.29650803565cm" y1="1.08cm" y2="1.0cm" /><line x1="14.5886727263cm" x2="14.5346854978cm" y1="5.0cm" y2="4.92cm" /><line x1="14.5346854978cm" x2="14.4829770025cm" y1="4.92cm" y2="4.84cm" /><line x1="14.4829770025cm" x2="14.4334464013cm" y1="4.84cm" y2="4.76cm" /><line x1="14.4334464013cm" x2="14.3859992798cm" y1="4.76cm" y2="4.68cm" /><line x1="14.3859992798cm" x2="14.3405472048cm" y1="4.68cm" y2="4.6cm" /><line x1="14.3405472048cm" x2="14.2970073191cm" y1="4.6cm" y2="4.52cm" /><line x1="14.2970073191cm" x2="14.2553019713cm" y1="4.52cm" y2="4.44cm" /><line x1="14.2553019713cm" x2="14.2153583769cm" y1="4.44cm" y2="4.36cm" /><line x1="14.2153583769cm" x2="14.177108308cm" y1="4.36cm" y2="4.28cm" /><line x1="14.177108308cm" x2="14.14048781cm" y1="4.28cm" y2="4.2cm" /><line x1="14.14048781cm" x2="14.1054369418cm" y1="4.2cm" y2="4.12cm" /><line x1="14.1054369418cm" x2="14.0718995385cm" y1="4.12cm" y2="4.04cm" /><line x1="14.0718995385cm" x2="14.039822994cm" y1="4.04cm" y2="3.96cm" /><line x1="14.039822994cm" x2="14.0091580631cm" y1="3.96cm" y2="3.88cm" /><line x1="14.0091580631cm" x2="13.9798586807cm" y1="3.88cm" y2="3.8cm" /><line x1="13.9798586807cm" x2="13.9518817967cm" y1="3.8cm" y2="3.72cm" /><line x1="13.9518817967cm" x2="13.9251872272cm" y1="3.72cm" y2="3.64cm" /><line x1="13.9251872272cm" x2="13.8997375184cm" y1="3.64cm" y2="3.56cm" /><line x1="13.8997375184cm" x2="13.8754978253cm" y1="3.56cm" y2="3.48cm" /><line x1="13.8754978253cm" x2="13.852435802cm" y1="3.48cm" y2="3.4cm" /><line x1="13.852435802cm" x2="13.8305215043cm" y1="3.4cm" y2="3.32cm" /><line x1="13.8305215043cm" x2="13.8097273047cm" y1="3.32cm" y2="3.24cm" /><line x1="13.8097273047cm" x2="13.7900278171cm" y1="3.24cm" y2="3.16cm" /><line x1="13.7900278171cm" x2="13.7713998339cm" y1="3.16cm" y2="3.08cm" /><line x1="13.7713998339cm" x2="13.7538222733cm" y1="3.08cm" y2="3.0cm" /><line x1="13.7538222733cm" x2="13.7372761372cm" y1="3.0cm" y2="2.92cm" /><line x1="13.7372761372cm" x2="13.7217444803cm" y1="2.92cm" y2="2.84cm" /><line x1="13.7217444803cm" x2="13.7072123901cm" y1="2.84cm" y2="2.76cm" /><line x1="13.7072123901cm" x2="13.6936669786cm" y1="2.76cm" y2="2.68cm" /><line x1="13.6936669786cm" x2="13.6810973851cm" y1="2.68cm" y2="2.6cm" /><line x1="13.6810973851cm" x2="13.6694947925cm" y1="2.6cm" y2="2.52cm" /><line x1="13.6694947925cm" x2="13.6588524566cm" y1="2.52cm" y2="2.44cm" /><line x1="13.6588524566cm" x2="13.6491657499cm" y1="2.44cm" y2="2.36cm" /><line x1="13.6491657499cm" x2="13.6404322212cm" y1="2.36cm" y2="2.28cm" /><line x1="13.6404322212cm" x2="13.6326516729cm" y1="2.28cm" y2="2.2cm" /><line x1="13.6326516729cm" x2="13.6258262579cm" y1="2.2cm" y2="2.12cm" /><line x1="13.6258262579cm" x2="13.6199605979cm" y1="2.12cm" y2="2.04cm" /><line x1="13.6199605979cm" x2="13.6150619278cm" y1="2.04cm" y2="1.96cm" /><line x1="13.6150619278cm" x2="13.6111402677cm" y1="1.96cm" y2="1.88cm" /><line x1="13.6111402677cm" x2="13.6082086284cm" y1="1.88cm" y2="1.8cm" /><line x1="13.6082086284cm" x2="13.6062832555cm" y1="1.8cm" y2="1.72cm" /><line x1="13.6062832555cm" x2="13.6053839182cm" y1="1.72cm" y2="1.64cm" /><line x1="13.6053839182cm" x2="13.6055342518cm" y1="1.64cm" y2="1.56cm" /><line x1="13.6055342518cm" x2="13.6067621633cm" y1="1.56cm" y2="1.48cm" /><line x1="13.6067621633cm" x2="13.6091003121cm" y1="1.48cm" y2="1.4cm" /><line x1="13.6091003121cm" x2="13.6125866832cm" y1="1.4cm" y2="1.32cm" /><line x1="13.6125866832cm" x2="13.6172652702cm" y1="1.32cm" y2="1.24cm" /><line x1="13.6172652702cm" x2="13.6231868942cm" y1="1.24cm" y2="1.16cm" /><line x1="13.6231868942cm" x2="13.63041019cm" y1="1.16cm" y2="1.08cm" /><line x1="13.63041019cm" x2="13.6390027993cm" y1="1.08cm" y2="1.0cm" /><line x1="7.79433636315cm" x2="7.84832359165cm" y1="5.0cm" y2="4.92cm" /><line x1="7.84832359165cm" x2="7.90003208698cm" y1="4.92cm" y2="4.84cm" /><line x1="7.90003208698cm" x2="7.94956268817cm" y1="4.84cm" y2="4.76cm" /><line x1="7.94956268817cm" x2="7.99700980965cm" y1="4.76cm" y2="4.68cm" /><line x1="7.99700980965cm" x2="8.04246188467cm" y1="4.68cm" y2="4.6cm" /><line x1="8.04246188467cm" x2="8.08600177034cm" y1="4.6cm" y2="4.52cm" /><line x1="8.08600177034cm" x2="8.12770711811cm" y1="4.52cm" y2="4.44cm" /><line x1="8.12770711811cm" x2="8.16765071256cm" y1="4.44cm" y2="4.36cm" /><line x1="8.16765071256cm" x2="8.20590078147cm" y1="4.36cm" y2="4.28cm" /><line x1="8.20590078147cm" x2="8.24252127945cm" y1="4.28cm" y2="4.2cm" /><line x1="8.24252127945cm" x2="8.27757214762cm" y1="4.2cm" y2="4.12cm" /><line x1="8.27757214762cm" x2="8.31110955097cm" y1="4.12cm" y2="4.04cm" /><line x1="8.31110955097cm" x2="8.34318609548cm" y1="4.04cm" y2="3.96cm" /><line x1="8.34318609548cm" x2="8.37385102633cm" y1="3.96cm" y2="3.88cm" /><line x1="8.37385102633cm" x2="8.40315040878cm" y1="3.88cm" y2="3.8cm" /><line x1="8.40315040878cm" x2="8.43112729273cm" y1="3.8cm" y2="3.72cm" /><line x1="8.43112729273cm" x2="8.45782186229cm" y1="3.72cm" y2="3.64cm" /><line x1="8.45782186229cm" x2="8.48327157106cm" y1="3.64cm" y2="3.56cm" /><line x1="8.48327157106cm" x2="8.50751126415cm" y1="3.56cm" y2="3.48cm" /><line x1="8.50751126415cm" x2="8.5305732875cm" y1="3.48cm" y2="3.4cm" /><line x1="8.5305732875cm" x2="8.55248758512cm" y1="3.4cm" y2="3.32cm" /><line x1="8.55248758512cm" x2="8.57328178477cm" y1="3.32cm" y2="3.24cm" /><line x1="8.57328178477cm" x2="8.59298127239cm" y1="3.24cm" y2="3.16cm" /><line x1="8.59298127239cm" x2="8.61160925555cm" y1="3.16cm" y2="3.08cm" /><line x1="8.61160925555cm" x2="8.62918681615cm" y1="3.08cm" y2="3.0cm" /><line x1="8.62918681615cm" x2="8.64573295227cm" y1="3.0cm" y2="2.92cm" /><line x1="8.64573295227cm" x2="8.66126460917cm" y1="2.92cm" y2="2.84cm" /><line x1="8.66126460917cm" x2="8.67579669931cm" y1="2.84cm" y2="2.76cm" /><line x1="8.67579669931cm" x2="8.68934211086cm" y1="2.76cm" y2="2.68cm" /><line x1="8.68934211086cm" x2="8.7019117044cm" y1="2.68cm" y2="2.6cm" /><line x1="8.7019117044cm" x2="8.71351429699cm" y1="2.6cm" y2="2.52cm" /><line x1="8.71351429699cm" x2="8.72415663285cm" y1="2.52cm" y2="2.44cm" /><line x1="8.72415663285cm" x2="8.73384333955cm" y1="2.44cm" y2="2.36cm" /><line x1="8.73384333955cm" x2="8.74257686824cm" y1="2.36cm" y2="2.28cm" /><line x1="8.74257686824cm" x2="8.75035741652cm" y1="2.28cm" y2="2.2cm" /><line x1="8.75035741652cm" x2="8.7571828316cm" y1="2.2cm" y2="2.12cm" /><line x1="8.7571828316cm" x2="8.76304849157cm" y1="2.12cm" y2="2.04cm" /><line x1="8.76304849157cm" x2="8.76794716165cm" y1="2.04cm" y2="1.96cm" /><line x1="8.76794716165cm" x2="8.77186882176cm" y1="1.96cm" y2="1.88cm" /><line x1="8.77186882176cm" x2="8.77480046106cm" y1="1.88cm" y2="1.8cm" /><line x1="8.77480046106cm" x2="8.77672583399cm" y1="1.8cm" y2="1.72cm" /><line x1="8.77672583399cm" x2="8.77762517128cm" y1="1.72cm" y2="1.64cm" /><line x1="8.77762517128cm" x2="8.77747483761cm" y1="1.64cm" y2="1.56cm" /><line x1="8.77747483761cm" x2="8.77624692617cm" y1="1.56cm" y2="1.48cm" /><line x1="8.77624692617cm" x2="8.77390877734cm" y1="1.48cm" y2="1.4cm" /><line x1="8.77390877734cm" x2="8.77042240621cm" y1="1.4cm" y2="1.32cm" /><line x1="8.77042240621cm" x2="8.76574381922cm" y1="1.32cm" y2="1.24cm" /><line x1="8.76574381922cm" x2="8.75982219521cm" y1="1.24cm" y2="1.16cm" /><line x1="8.75982219521cm" x2="8.75259889948cm" y1="1.16cm" y2="1.08cm" /><line x1="8.75259889948cm" x2="8.74400629019cm" y1="1.08cm" y2="1.0cm" /><line x1="12.8900886355cm" x2="12.8630950213cm" y1="5.0cm" y2="4.92cm" /><line x1="12.8630950213cm" x2="12.8372407736cm" y1="4.92cm" y2="4.84cm" /><line x1="12.8372407736cm" x2="12.812475473cm" y1="4.84cm" y2="4.76cm" /><line x1="12.812475473cm" x2="12.7887519123cm" y1="4.76cm" y2="4.68cm" /><line x1="12.7887519123cm" x2="12.7660258748cm" y1="4.68cm" y2="4.6cm" /><line x1="12.7660258748cm" x2="12.7442559319cm" y1="4.6cm" y2="4.52cm" /><line x1="12.7442559319cm" x2="12.723403258cm" y1="4.52cm" y2="4.44cm" /><line x1="12.723403258cm" x2="12.7034314608cm" y1="4.44cm" y2="4.36cm" /><line x1="12.7034314608cm" x2="12.6843064264cm" y1="4.36cm" y2="4.28cm" /><line x1="12.6843064264cm" x2="12.6659961774cm" y1="4.28cm" y2="4.2cm" /><line x1="12.6659961774cm" x2="12.6484707433cm" y1="4.2cm" y2="4.12cm" /><line x1="12.6484707433cm" x2="12.6317020416cm" y1="4.12cm" y2="4.04cm" /><line x1="12.6317020416cm" x2="12.6156637694cm" y1="4.04cm" y2="3.96cm" /><line x1="12.6156637694cm" x2="12.6003313039cm" y1="3.96cm" y2="3.88cm" /><line x1="12.6003313039cm" x2="12.5856816127cm" y1="3.88cm" y2="3.8cm" /><line x1="12.5856816127cm" x2="12.5716931707cm" y1="3.8cm" y2="3.72cm" /><line x1="12.5716931707cm" x2="12.5583458859cm" y1="3.72cm" y2="3.64cm" /><line x1="12.5583458859cm" x2="12.5456210316cm" y1="3.64cm" y2="3.56cm" /><line x1="12.5456210316cm" x2="12.533501185cm" y1="3.56cm" y2="3.48cm" /><line x1="12.533501185cm" x2="12.5219701733cm" y1="3.48cm" y2="3.4cm" /><line x1="12.5219701733cm" x2="12.5110130245cm" y1="3.4cm" y2="3.32cm" /><line x1="12.5110130245cm" x2="12.5006159247cm" y1="3.32cm" y2="3.24cm" /><line x1="12.5006159247cm" x2="12.4907661809cm" y1="3.24cm" y2="3.16cm" /><line x1="12.4907661809cm" x2="12.4814521893cm" y1="3.16cm" y2="3.08cm" /><line x1="12.4814521893cm" x2="12.472663409cm" y1="3.08cm" y2="3.0cm" /><line x1="12.472663409cm" x2="12.464390341cm" y1="3.0cm" y2="2.92cm" /><line x1="12.464390341cm" x2="12.4566245125cm" y1="2.92cm" y2="2.84cm" /><line x1="12.4566245125cm" x2="12.4493584674cm" y1="2.84cm" y2="2.76cm" /><line x1="12.4493584674cm" x2="12.4425857617cm" y1="2.76cm" y2="2.68cm" /><line x1="12.4425857617cm" x2="12.4363009649cm" y1="2.68cm" y2="2.6cm" /><line x1="12.4363009649cm" x2="12.4304996686cm" y1="2.6cm" y2="2.52cm" /><line x1="12.4304996686cm" x2="12.4251785007cm" y1="2.52cm" y2="2.44cm" /><line x1="12.4251785007cm" x2="12.4203351473cm" y1="2.44cm" y2="2.36cm" /><line x1="12.4203351473cm" x2="12.415968383cm" y1="2.36cm" y2="2.28cm" /><line x1="12.415968383cm" x2="12.4120781088cm" y1="2.28cm" y2="2.2cm" /><line x1="12.4120781088cm" x2="12.4086654013cm" y1="2.2cm" y2="2.12cm" /><line x1="12.4086654013cm" x2="12.4057325713cm" y1="2.12cm" y2="2.04cm" /><line x1="12.4057325713cm" x2="12.4032832363cm" y1="2.04cm" y2="1.96cm" /><line x1="12.4032832363cm" x2="12.4013224062cm" y1="1.96cm" y2="1.88cm" /><line x1="12.4013224062cm" x2="12.3998565866cm" y1="1.88cm" y2="1.8cm" /><line x1="12.3998565866cm" x2="12.3988939001cm" y1="1.8cm" y2="1.72cm" /><line x1="12.3988939001cm" x2="12.3984442315cm" y1="1.72cm" y2="1.64cm" /><line x1="12.3984442315cm" x2="12.3985193983cm" y1="1.64cm" y2="1.56cm" /><line x1="12.3985193983cm" x2="12.399133354cm" y1="1.56cm" y2="1.48cm" /><line x1="12.399133354cm" x2="12.4003024284cm" y1="1.48cm" y2="1.4cm" /><line x1="12.4003024284cm" x2="12.402045614cm" y1="1.4cm" y2="1.32cm" /><line x1="12.402045614cm" x2="12.4043849075cm" y1="1.32cm" y2="1.24cm" /><line x1="12.4043849075cm" x2="12.4073457195cm" y1="1.24cm" y2="1.16cm" /><line x1="12.4073457195cm" x2="12.4109573674cm" y1="1.16cm" y2="1.08cm" /><line x1="12.4109573674cm" x2="12.415253672cm" y1="1.08cm" y2="1.0cm" /><line x1="9.49292045394cm" x2="9.51991406819cm" y1="5.0cm" y2="4.92cm" /><line x1="9.51991406819cm" x2="9.54576831586cm" y1="4.92cm" y2="4.84cm" /><line x1="9.54576831586cm" x2="9.57053361645cm" y1="4.84cm" y2="4.76cm" /><line x1="9.57053361645cm" x2="9.59425717719cm" y1="4.76cm" y2="4.68cm" /><line x1="9.59425717719cm" x2="9.6169832147cm" y1="4.68cm" y2="4.6cm" /><line x1="9.6169832147cm" x2="9.63875315754cm" y1="4.6cm" y2="4.52cm" /><line x1="9.63875315754cm" x2="9.65960583142cm" y1="4.52cm" y2="4.44cm" /><line x1="9.65960583142cm" x2="9.67957762865cm" y1="4.44cm" y2="4.36cm" /><line x1="9.67957762865cm" x2="9.6987026631cm" y1="4.36cm" y2="4.28cm" /><line x1="9.6987026631cm" x2="9.71701291209cm" y1="4.28cm" y2="4.2cm" /><line x1="9.71701291209cm" x2="9.73453834618cm" y1="4.2cm" y2="4.12cm" /><line x1="9.73453834618cm" x2="9.75130704785cm" y1="4.12cm" y2="4.04cm" /><line x1="9.75130704785cm" x2="9.7673453201cm" y1="4.04cm" y2="3.96cm" /><line x1="9.7673453201cm" x2="9.78267778553cm" y1="3.96cm" y2="3.88cm" /><line x1="9.78267778553cm" x2="9.79732747675cm" y1="3.88cm" y2="3.8cm" /><line x1="9.79732747675cm" x2="9.81131591873cm" y1="3.8cm" y2="3.72cm" /><line x1="9.81131591873cm" x2="9.82466320351cm" y1="3.72cm" y2="3.64cm" /><line x1="9.82466320351cm" x2="9.83738805789cm" y1="3.64cm" y2="3.56cm" /><line x1="9.83738805789cm" x2="9.84950790444cm" y1="3.56cm" y2="3.48cm" /><line x1="9.84950790444cm" x2="9.86103891612cm" y1="3.48cm" y2="3.4cm" /><line x1="9.86103891612cm" x2="9.87199606493cm" y1="3.4cm" y2="3.32cm" /><line x1="9.87199606493cm" x2="9.88239316475cm" y1="3.32cm" y2="3.24cm" /><line x1="9.88239316475cm" x2="9.89224290856cm" y1="3.24cm" y2="3.16cm" /><line x1="9.89224290856cm" x2="9.90155690014cm" y1="3.16cm" y2="3.08cm" /><line x1="9.90155690014cm" x2="9.91034568044cm" y1="3.08cm" y2="3.0cm" /><line x1="9.91034568044cm" x2="9.9186187485cm" y1="3.0cm" y2="2.92cm" /><line x1="9.9186187485cm" x2="9.92638457695cm" y1="2.92cm" y2="2.84cm" /><line x1="9.92638457695cm" x2="9.93365062202cm" y1="2.84cm" y2="2.76cm" /><line x1="9.93365062202cm" x2="9.9404233278cm" y1="2.76cm" y2="2.68cm" /><line x1="9.9404233278cm" x2="9.94670812456cm" y1="2.68cm" y2="2.6cm" /><line x1="9.94670812456cm" x2="9.95250942086cm" y1="2.6cm" y2="2.52cm" /><line x1="9.95250942086cm" x2="9.95783058879cm" y1="2.52cm" y2="2.44cm" /><line x1="9.95783058879cm" x2="9.96267394214cm" y1="2.44cm" y2="2.36cm" /><line x1="9.96267394214cm" x2="9.96704070649cm" y1="2.36cm" y2="2.28cm" /><line x1="9.96704070649cm" x2="9.97093098062cm" y1="2.28cm" y2="2.2cm" /><line x1="9.97093098062cm" x2="9.97434368816cm" y1="2.2cm" y2="2.12cm" /><line x1="9.97434368816cm" x2="9.97727651815cm" y1="2.12cm" y2="2.04cm" /><line x1="9.97727651815cm" x2="9.97972585319cm" y1="2.04cm" y2="1.96cm" /><line x1="9.97972585319cm" x2="9.98168668324cm" y1="1.96cm" y2="1.88cm" /><line x1="9.98168668324cm" x2="9.98315250289cm" y1="1.88cm" y2="1.8cm" /><line x1="9.98315250289cm" x2="9.98411518936cm" y1="1.8cm" y2="1.72cm" /><line x1="9.98411518936cm" x2="9.984564858cm" y1="1.72cm" y2="1.64cm" /><line x1="9.984564858cm" x2="9.98448969117cm" y1="1.64cm" y2="1.56cm" /><line x1="9.98448969117cm" x2="9.98387573545cm" y1="1.56cm" y2="1.48cm" /><line x1="9.98387573545cm" x2="9.98270666103cm" y1="1.48cm" y2="1.4cm" /><line x1="9.98270666103cm" x2="9.98096347547cm" y1="1.4cm" y2="1.32cm" /><line x1="9.98096347547cm" x2="9.97862418197cm" y1="1.32cm" y2="1.24cm" /><line x1="9.97862418197cm" x2="9.97566336997cm" y1="1.24cm" y2="1.16cm" /><line x1="9.97566336997cm" x2="9.97205172211cm" y1="1.16cm" y2="1.08cm" /><line x1="9.97205172211cm" x2="9.96775541746cm" y1="1.08cm" y2="1.0cm" /></g><text x="21.3830090895cm" y="5.3cm">75km</text><text x="1.0cm" y="5.3cm">75km</text><text x="17.9858409079cm" y="5.3cm">50km</text><text x="4.39716818158cm" y="5.3cm">50km</text><text x="14.5886727263cm" y="5.3cm">25km</text><text x="7.79433636315cm" y="5.3cm">25km</text><g id="horizontal_tick" stroke="black"><line x1="11.1915045447cm" x2="21.3830090895cm" y1="5.0cm" y2="5.0cm" /><line x1="1.0cm" x2="11.1915045447cm" y1="5.0cm" y2="5.0cm" /><line x1="11.1915045447cm" x2="21.3830090895cm" y1="4.33333333333cm" y2="4.33333333333cm" /><line x1="1.0cm" x2="11.1915045447cm" y1="4.33333333333cm" y2="4.33333333333cm" /><line x1="11.1915045447cm" x2="21.3830090895cm" y1="3.66666666667cm" y2="3.66666666667cm" /><line x1="1.0cm" x2="11.1915045447cm" y1="3.66666666667cm" y2="3.66666666667cm" /><line x1="11.1915045447cm" x2="21.3830090895cm" y1="3.0cm" y2="3.0cm" /><line x1="1.0cm" x2="11.1915045447cm" y1="3.0cm" y2="3.0cm" /><line x1="11.1915045447cm" x2="21.3830090895cm" y1="2.33333333333cm" y2="2.33333333333cm" /><line x1="1.0cm" x2="11.1915045447cm" y1="2.33333333333cm" y2="2.33333333333cm" /><line x1="11.1915045447cm" x2="21.3830090895cm" y1="1.66666666667cm" y2="1.66666666667cm" /><line x1="1.0cm" x2="11.1915045447cm" y1="1.66666666667cm" y2="1.66666666667cm" /><line x1="11.1915045447cm" x2="21.3830090895cm" y1="1.0cm" y2="1.0cm" /><line x1="1.0cm" x2="11.1915045447cm" y1="1.0cm" y2="1.0cm" /></g></svg>