<?xml version="1.0" encoding="utf-8" ?>
<svg baseProfile="full" height="6.0cm" version="1.1" width="32.0cm" xmlns="http://www.w3.org/2000/svg" xmlns:ev="http://www.w3.org/2001/xml-events" xmlns:xlink="http://www.w3.org/1999/xlink"><defs /><g font-size="14"><text x="31.0cm" y="5.0cm">0.0°</text><text x="0.0cm" y="5.0cm">0.0°</text><text x="31.0cm" y="3.66666666667cm">20.0°</text><text x="0.0cm" y="3.66666666667cm">20.0°</text><text x="31.0cm" y="2.33333333333cm">40.0°</text><text x="0.0cm" y="2.33333333333cm">40.0°</text><text x="31.0cm" y="1.0cm">60.0°</text><text x="0.0cm" y="1.0cm">60.0°</text></g><g id="vertical" stroke="black"><line x1="16.0cm" x2="16.0cm" y1="1.0cm" y2="1.08cm" /><line x1="16.0cm" x2="16.0cm" y1="1.08cm" y2="1.16cm" /><line x1="16.0cm" x2="16.0cm" y1="1.16cm" y2="1.24cm" /><line x1="16.0cm" x2="16.0cm" y1="1.24cm" y2="1.32cm" /><line x1="16.0cm" x2="16.0cm" y1="1.32cm" y2="1.4cm" /><line x1="16.0cm" x2="16.0cm" y1="1.4cm" y2="1.48cm" /><line x1="16.0cm" x2="16.0cm" y1="1.48cm" y2="1.56cm" /><line x1="16.0cm" x2="16.0cm" y1="1.56cm" y2="1.64cm" /><line x1="16.0cm" x2="16.0cm" y1="1.64cm" y2="1.72cm" /><line x1="16.0cm" x2="16.0cm" y1="1.72cm" y2="1.8cm" /><line x1="16.0cm" x2="16.0cm" y1="1.8cm" y2="1.88cm" /><line x1="16.0cm" x2="16.0cm" y1="1.88cm" y2="1.96cm" /><line x1="16.0cm" x2="16.0cm" y1="1.96cm" y2="2.04cm" /><line x1="16.0cm" x2="16.0cm" y1="2.04cm" y2="2.12cm" /><line x1="16.0cm" x2="16.0cm" y1="2.12cm" y2="2.2cm" /><line x1="16.0cm" x2="16.0cm" y1="2.2cm" y2="2.28cm" /><line x1="16.0cm" x2="16.0cm" y1="2.28cm" y2="2.36cm" /><line x1="16.0cm" x2="16.0cm" y1="2.36cm" y2="2.44cm" /><line x1="16.0cm" x2="16.0cm" y1="2.44cm" y2="2.52cm" /><line x1="16.0cm" x2="16.0cm" y1="2.52cm" y2="2.6cm" /><line x1="16.0cm" x2="16.0cm" y1="2.6cm" y2="2.68cm" /><line x1="16.0cm" x2="16.0cm" y1="2.68cm" y2="2.76cm" /><line x1="16.0cm" x2="16.0cm" y1="2.76cm" y2="2.84cm" /><line x1="16.0cm" x2="16.0cm" y1="2.84cm" y2="2.92cm" /><line x1="16.0cm" x2="16.0cm" y1="2.92cm" y2="3.0cm" /><line x1="16.0cm" x2="16.0cm" y1="3.0cm" y2="3.08cm" /><line x1="16.0cm" x2="16.0cm" y1="3.08cm" y2="3.16cm" /><line x1="16.0cm" x2="16.0cm" y1="3.16cm" y2="3.24cm" /><line x1="16.0cm" x2="16.0cm" y1="3.24cm" y2="3.32cm" /><line x1="16.0cm" x2="16.0cm" y1="3.32cm" y2="3.4cm" /><line x1="16.0cm" x2="16.0cm" y1="3.4cm" y2="3.48cm" /><line x1="16.0cm" x2="16.0cm" y1="3.48cm" y2="3.56cm" /><line x1="16.0cm" x2="16.0cm" y1="3.56cm" y2="3.64cm" /><line x1="16.0cm" x2="16.0cm" y1="3.64cm" y2="3.72cm" /><line x1="16.0cm" x2="16.0cm" y1="3.72cm" y2="3.8cm" /><line x1="16.0cm" x2="16.0cm" y1="3.8cm" y2="3.88cm" /><line x1="16.0cm" x2="16.0cm" y1="3.88cm" y2="3.96cm" /><line x1="16.0cm" x2="16.0cm" y1="3.96cm" y2="4.04cm" /><line x1="16.0cm" x2="16.0cm" y1="4.04cm" y2="4.12cm" /><line x1="16.0cm" x2="16.0cm" y1="4.12cm" y2="4.2cm" /><line x1="16.0cm" x2="16.0cm" y1="4.2cm" y2="4.28cm" /><line x1="16.0cm" x2="16.0cm" y1="4.28cm" y2="4.36cm" /><line x1="16.0cm" x2="16.0cm" y1="4.36cm" y2="4.44cm" /><line x1="16.0cm" x2="16.0cm" y1="4.44cm" y2="4.52cm" /><line x1="16.0cm" x2="16.0cm" y1="4.52cm" y2="4.6cm" /><line x1="16.0cm" x2="16.0cm" y1="4.6cm" y2="4.68cm" /><line x1="16.0cm" x2="16.0cm" y1="4.68cm" y2="4.76cm" /><line x1="16.0cm" x2="16.0cm" y1="4.76cm" y2="4.84cm" /><line x1="16.0cm" x2="16.0cm" y1="4.84cm" y2="4.92cm" /><line x1="16.0cm" x2="16.0cm" y1="4.92cm" y2="5.0cm" /><line x1="23.5cm" x2="23.5016452348cm" y1="5.0cm" y2="4.92cm" /><line x1="23.5016452348cm" x2="23.50658455cm" y1="4.92cm" y2="4.84cm" /><line x1="23.50658455cm" x2="23.514828798cm" y1="4.84cm" y2="4.76cm" /><line x1="23.514828798cm" x2="23.5263961306cm" y1="4.76cm" y2="4.68cm" /><line x1="23.5263961306cm" x2="23.5413120967cm" y1="4.68cm" y2="4.6cm" /><line x1="23.5413120967cm" x2="23.5596097811cm" y1="4.6cm" y2="4.52cm" /><line x1="23.5596097811cm" x2="23.5813299838cm" y1="4.52cm" y2="4.44cm" /><line x1="23.5813299838cm" x2="23.6065214443cm" y1="4.44cm" y2="4.36cm" /><line x1="23.6065214443cm" x2="23.6352411114cm" y1="4.36cm" y2="4.28cm" /><line x1="23.6352411114cm" x2="23.6675544615cm" y1="4.28cm" y2="4.2cm" /><line x1="23.6675544615cm" x2="23.7035358694cm" y1="4.2cm" y2="4.12cm" /><line x1="23.7035358694cm" x2="23.7432690356cm" y1="4.12cm" y2="4.04cm" /><line x1="23.7432690356cm" x2="23.7868474737cm" y1="4.04cm" y2="3.96cm" /><line x1="23.7868474737cm" x2="23.8343750643cm" y1="3.96cm" y2="3.88cm" /><line x1="23.8343750643cm" x2="23.8859666818cm" y1="3.88cm" y2="3.8cm" /><line x1="23.8859666818cm" x2="23.9417489005cm" y1="3.8cm" y2="3.72cm" /><line x1="23.9417489005cm" x2="24.0018607891cm" y1="3.72cm" y2="3.64cm" /><line x1="24.0018607891cm" x2="24.0664548027cm" y1="3.64cm" y2="3.56cm" /><line x1="24.0664548027cm" x2="24.1356977845cm" y1="3.56cm" y2="3.48cm" /><line x1="24.1356977845cm" x2="24.2097720888cm" y1="3.48cm" y2="3.4cm" /><line x1="24.2097720888cm" x2="24.2888768407cm" y1="3.4cm" y2="3.32cm" /><line x1="24.2888768407cm" x2="24.37322935cm" y1="3.32cm" y2="3.24cm" /><line x1="24.37322935cm" x2="24.4630666991cm" y1="3.24cm" y2="3.16cm" /><line x1="24.4630666991cm" x2="24.5586475269cm" y1="3.16cm" y2="3.08cm" /><line x1="24.5586475269cm" x2="24.6602540378cm" y1="3.08cm" y2="3.0cm" /><line x1="24.6602540378cm" x2="24.7681942645cm" y1="3.0cm" y2="2.92cm" /><line x1="24.7681942645cm" x2="24.882804623cm" y1="2.92cm" y2="2.84cm" /><line x1="24.882804623cm" x2="25.0044528023cm" y1="2.84cm" y2="2.76cm" /><line x1="25.0044528023cm" x2="25.1335410381cm" y1="2.76cm" y2="2.68cm" /><line x1="25.1335410381cm" x2="25.2705098312cm" y1="2.68cm" y2="2.6cm" /><line x1="25.2705098312cm" x2="25.4158421803cm" y1="2.6cm" y2="2.52cm" /><line x1="25.4158421803cm" x2="25.5700684112cm" y1="2.52cm" y2="2.44cm" /><line x1="25.5700684112cm" x2="25.7337717039cm" y1="2.44cm" y2="2.36cm" /><line x1="25.7337717039cm" x2="25.9075944341cm" y1="2.36cm" y2="2.28cm" /><line x1="25.9075944341cm" x2="26.092245472cm" y1="2.28cm" y2="2.2cm" /><line x1="26.092245472cm" x2="26.2885086105cm" y1="2.2cm" y2="2.12cm" /><line x1="26.2885086105cm" x2="26.4972523286cm" y1="2.12cm" y2="2.04cm" /><line x1="26.4972523286cm" x2="26.7194411451cm" y1="2.04cm" y2="1.96cm" /><line x1="26.7194411451cm" x2="26.9561488684cm" y1="1.96cm" y2="1.88cm" /><line x1="26.9561488684cm" x2="27.208574124cm" y1="1.88cm" y2="1.8cm" /><line x1="27.208574124cm" x2="27.4780586259cm" y1="1.8cm" y2="1.72cm" /><line x1="27.4780586259cm" x2="27.7661087763cm" y1="1.72cm" y2="1.64cm" /><line x1="27.7661087763cm" x2="28.0744213183cm" y1="1.64cm" y2="1.56cm" /><line x1="28.0744213183cm" x2="28.4049139597cm" y1="1.56cm" y2="1.48cm" /><line x1="28.4049139597cm" x2="28.7597621253cm" y1="1.48cm" y2="1.4cm" /><line x1="28.7597621253cm" x2="29.1414433171cm" y1="1.4cm" y2="1.32cm" /><line x1="29.1414433171cm" x2="29.5527909854cm" y1="1.32cm" y2="1.24cm" /><line x1="29.5527909854cm" x2="29.9970603753cm" y1="1.24cm" y2="1.16cm" /><line x1="29.9970603753cm" x2="30.4780095715cm" y1="1.16cm" y2="1.08cm" /><line x1="30.4780095715cm" x2="31.0cm" y1="1.08cm" y2="1.0cm" /><line x1="8.5cm" x2="8.49835476523cm" y1="5.0cm" y2="4.92cm" /><line x1="8.49835476523cm" x2="8.49341544997cm" y1="4.92cm" y2="4.84cm" /><line x1="8.49341544997cm" x2="8.48517120197cm" y1="4.84cm" y2="4.76cm" /><line x1="8.48517120197cm" x2="8.47360386943cm" y1="4.76cm" y2="4.68cm" /><line x1="8.47360386943cm" x2="8.45868790327cm" y1="4.68cm" y2="4.6cm" /><line x1="8.45868790327cm" x2="8.44039021893cm" y1="4.6cm" y2="4.52cm" /><line x1="8.44039021893cm" x2="8.41867001624cm" y1="4.52cm" y2="4.44cm" /><line x1="8.41867001624cm" x2="8.39347855567cm" y1="4.44cm" y2="4.36cm" /><line x1="8.39347855567cm" x2="8.36475888857cm" y1="4.36cm" y2="4.28cm" /><line x1="8.36475888857cm" x2="8.33244553851cm" y1="4.28cm" y2="4.2cm" /><line x1="8.33244553851cm" x2="8.29646413057cm" y1="4.2cm" y2="4.12cm" /><line x1="8.29646413057cm" x2="8.25673096437cm" y1="4.12cm" y2="4.04cm" /><line x1="8.25673096437cm" x2="8.21315252633cm" y1="4.04cm" y2="3.96cm" /><line x1="8.21315252633cm" x2="8.16562493573cm" y1="3.96cm" y2="3.88cm" /><line x1="8.16562493573cm" x2="8.11403331821cm" y1="3.88cm" y2="3.8cm" /><line x1="8.11403331821cm" x2="8.05825109949cm" y1="3.8cm" y2="3.72cm" /><line x1="8.05825109949cm" x2="7.99813921095cm" y1="3.72cm" y2="3.64cm" /><line x1="7.99813921095cm" x2="7.93354519733cm" y1="3.64cm" y2="3.56cm" /><line x1="7.93354519733cm" x2="7.86430221549cm" y1="3.56cm" y2="3.48cm" /><line x1="7.86430221549cm" x2="7.7902279112cm" y1="3.48cm" y2="3.4cm" /><line x1="7.7902279112cm" x2="7.71112315933cm" y1="3.4cm" y2="3.32cm" /><line x1="7.71112315933cm" x2="7.62677064997cm" y1="3.32cm" y2="3.24cm" /><line x1="7.62677064997cm" x2="7.53693330092cm" y1="3.24cm" y2="3.16cm" /><line x1="7.53693330092cm" x2="7.44135247306cm" y1="3.16cm" y2="3.08cm" /><line x1="7.44135247306cm" x2="7.33974596216cm" y1="3.08cm" y2="3.0cm" /><line x1="7.33974596216cm" x2="7.2318057355cm" y1="3.0cm" y2="2.92cm" /><line x1="7.2318057355cm" x2="7.11719537697cm" y1="2.92cm" y2="2.84cm" /><line x1="7.11719537697cm" x2="6.99554719771cm" y1="2.84cm" y2="2.76cm" /><line x1="6.99554719771cm" x2="6.86645896193cm" y1="2.76cm" y2="2.68cm" /><line x1="6.86645896193cm" x2="6.72949016875cm" y1="2.68cm" y2="2.6cm" /><line x1="6.72949016875cm" x2="6.5841578197cm" y1="2.6cm" y2="2.52cm" /><line x1="6.5841578197cm" x2="6.42993158882cm" y1="2.52cm" y2="2.44cm" /><line x1="6.42993158882cm" x2="6.26622829611cm" y1="2.44cm" y2="2.36cm" /><line x1="6.26622829611cm" x2="6.09240556592cm" y1="2.36cm" y2="2.28cm" /><line x1="6.09240556592cm" x2="5.90775452795cm" y1="2.28cm" y2="2.2cm" /><line x1="5.90775452795cm" x2="5.71149138951cm" y1="2.2cm" y2="2.12cm" /><line x1="5.71149138951cm" x2="5.5027476714cm" y1="2.12cm" y2="2.04cm" /><line x1="5.5027476714cm" x2="5.28055885492cm" y1="2.04cm" y2="1.96cm" /><line x1="5.28055885492cm" x2="5.04385113158cm" y1="1.96cm" y2="1.88cm" /><line x1="5.04385113158cm" x2="4.79142587602cm" y1="1.88cm" y2="1.8cm" /><line x1="4.79142587602cm" x2="4.52194137405cm" y1="1.8cm" y2="1.72cm" /><line x1="4.52194137405cm" x2="4.23389122371cm" y1="1.72cm" y2="1.64cm" /><line x1="4.23389122371cm" x2="3.92557868171cm" y1="1.64cm" y2="1.56cm" /><line x1="3.92557868171cm" x2="3.59508604026cm" y1="1.56cm" y2="1.48cm" /><line x1="3.59508604026cm" x2="3.24023787472cm" y1="1.48cm" y2="1.4cm" /><line x1="3.24023787472cm" x2="2.85855668294cm" y1="1.4cm" y2="1.32cm" /><line x1="2.85855668294cm" x2="2.44720901457cm" y1="1.32cm" y2="1.24cm" /><line x1="2.44720901457cm" x2="2.00293962475cm" y1="1.24cm" y2="1.16cm" /><line x1="2.00293962475cm" x2="1.5219904285cm" y1="1.16cm" y2="1.08cm" /><line x1="1.5219904285cm" x2="1.0cm" y1="1.08cm" y2="1.0cm" /><line x1="21.0cm" x2="21.0010968232cm" y1="5.0cm" y2="4.92cm" /><line x1="21.0010968232cm" x2="21.0043897cm" y1="4.92cm" y2="4.84cm" /><line x1="21.0043897cm" x2="21.0098858654cm" y1="4.84cm" y2="4.76cm" /><line x1="21.0098858654cm" x2="21.0175974204cm" y1="4.76cm" y2="4.68cm" /><line x1="21.0175974204cm" x2="21.0275413978cm" y1="4.68cm" y2="4.6cm" /><line x1="21.0275413978cm" x2="21.039739854cm" y1="4.6cm" y2="4.52cm" /><line x1="21.039739854cm" x2="21.0542199892cm" y1="4.52cm" y2="4.44cm" /><line x1="21.0542199892cm" x2="21.0710142962cm" y1="4.44cm" y2="4.36cm" /><line x1="21.0710142962cm" x2="21.090160741cm" y1="4.36cm" y2="4.28cm" /><line x1="21.090160741cm" x2="21.1117029743cm" y1="4.28cm" y2="4.2cm" /><line x1="21.1117029743cm" x2="21.1356905796cm" y1="4.2cm" y2="4.12cm" /><line x1="21.1356905796cm" x2="21.1621793571cm" y1="4.12cm" y2="4.04cm" /><line x1="21.1621793571cm" x2="21.1912316491cm" y1="4.04cm" y2="3.96cm" /><line x1="21.1912316491cm" x2="21.2229167095cm" y1="3.96cm" y2="3.88cm" /><line x1="21.2229167095cm" x2="21.2573111212cm" y1="3.88cm" y2="3.8cm" /><line x1="21.2573111212cm" x2="21.294499267cm" y1="3.8cm" y2="3.72cm" /><line x1="21.294499267cm" x2="21.3345738594cm" y1="3.72cm" y2="3.64cm" /><line x1="21.3345738594cm" x2="21.3776365351cm" y1="3.64cm" y2="3.56cm" /><line x1="21.3776365351cm" x2="21.423798523cm" y1="3.56cm" y2="3.48cm" /><line x1="21.423798523cm" x2="21.4731813925cm" y1="3.48cm" y2="3.4cm" /><line x1="21.4731813925cm" x2="21.5259178938cm" y1="3.4cm" y2="3.32cm" /><line x1="21.5259178938cm" x2="21.5821529cm" y1="3.32cm" y2="3.24cm" /><line x1="21.5821529cm" x2="21.6420444661cm" y1="3.24cm" y2="3.16cm" /><line x1="21.6420444661cm" x2="21.705765018cm" y1="3.16cm" y2="3.08cm" /><line x1="21.705765018cm" x2="21.7735026919cm" y1="3.08cm" y2="3.0cm" /><line x1="21.7735026919cm" x2="21.845462843cm" y1="3.0cm" y2="2.92cm" /><line x1="21.845462843cm" x2="21.9218697487cm" y1="2.92cm" y2="2.84cm" /><line x1="21.9218697487cm" x2="22.0029685349cm" y1="2.84cm" y2="2.76cm" /><line x1="22.0029685349cm" x2="22.0890273587cm" y1="2.76cm" y2="2.68cm" /><line x1="22.0890273587cm" x2="22.1803398875cm" y1="2.68cm" y2="2.6cm" /><line x1="22.1803398875cm" x2="22.2772281202cm" y1="2.6cm" y2="2.52cm" /><line x1="22.2772281202cm" x2="22.3800456075cm" y1="2.52cm" y2="2.44cm" /><line x1="22.3800456075cm" x2="22.4891811359cm" y1="2.44cm" y2="2.36cm" /><line x1="22.4891811359cm" x2="22.6050629561cm" y1="2.36cm" y2="2.28cm" /><line x1="22.6050629561cm" x2="22.728163648cm" y1="2.28cm" y2="2.2cm" /><line x1="22.728163648cm" x2="22.8590057403cm" y1="2.2cm" y2="2.12cm" /><line x1="22.8590057403cm" x2="22.9981682191cm" y1="2.12cm" y2="2.04cm" /><line x1="22.9981682191cm" x2="23.1462940967cm" y1="2.04cm" y2="1.96cm" /><line x1="23.1462940967cm" x2="23.3040992456cm" y1="1.96cm" y2="1.88cm" /><line x1="23.3040992456cm" x2="23.4723827493cm" y1="1.88cm" y2="1.8cm" /><line x1="23.4723827493cm" x2="23.652039084cm" y1="1.8cm" y2="1.72cm" /><line x1="23.652039084cm" x2="23.8440725175cm" y1="1.72cm" y2="1.64cm" /><line x1="23.8440725175cm" x2="24.0496142122cm" y1="1.64cm" y2="1.56cm" /><line x1="24.0496142122cm" x2="24.2699426398cm" y1="1.56cm" y2="1.48cm" /><line x1="24.2699426398cm" x2="24.5065080835cm" y1="1.48cm" y2="1.4cm" /><line x1="24.5065080835cm" x2="24.7609622114cm" y1="1.4cm" y2="1.32cm" /><line x1="24.7609622114cm" x2="25.0351939903cm" y1="1.32cm" y2="1.24cm" /><line x1="25.0351939903cm" x2="25.3313735835cm" y1="1.24cm" y2="1.16cm" /><line x1="25.3313735835cm" x2="25.652006381cm" y1="1.16cm" y2="1.08cm" /><line x1="25.652006381cm" x2="26.0cm" y1="1.08cm" y2="1.0cm" /><line x1="11.0cm" x2="10.9989031768cm" y1="5.0cm" y2="4.92cm" /><line x1="10.9989031768cm" x2="10.9956103cm" y1="4.92cm" y2="4.84cm" /><line x1="10.9956103cm" x2="10.9901141346cm" y1="4.84cm" y2="4.76cm" /><line x1="10.9901141346cm" x2="10.9824025796cm" y1="4.76cm" y2="4.68cm" /><line x1="10.9824025796cm" x2="10.9724586022cm" y1="4.68cm" y2="4.6cm" /><line x1="10.9724586022cm" x2="10.960260146cm" y1="4.6cm" y2="4.52cm" /><line x1="10.960260146cm" x2="10.9457800108cm" y1="4.52cm" y2="4.44cm" /><line x1="10.9457800108cm" x2="10.9289857038cm" y1="4.44cm" y2="4.36cm" /><line x1="10.9289857038cm" x2="10.909839259cm" y1="4.36cm" y2="4.28cm" /><line x1="10.909839259cm" x2="10.8882970257cm" y1="4.28cm" y2="4.2cm" /><line x1="10.8882970257cm" x2="10.8643094204cm" y1="4.2cm" y2="4.12cm" /><line x1="10.8643094204cm" x2="10.8378206429cm" y1="4.12cm" y2="4.04cm" /><line x1="10.8378206429cm" x2="10.8087683509cm" y1="4.04cm" y2="3.96cm" /><line x1="10.8087683509cm" x2="10.7770832905cm" y1="3.96cm" y2="3.88cm" /><line x1="10.7770832905cm" x2="10.7426888788cm" y1="3.88cm" y2="3.8cm" /><line x1="10.7426888788cm" x2="10.705500733cm" y1="3.8cm" y2="3.72cm" /><line x1="10.705500733cm" x2="10.6654261406cm" y1="3.72cm" y2="3.64cm" /><line x1="10.6654261406cm" x2="10.6223634649cm" y1="3.64cm" y2="3.56cm" /><line x1="10.6223634649cm" x2="10.576201477cm" y1="3.56cm" y2="3.48cm" /><line x1="10.576201477cm" x2="10.5268186075cm" y1="3.48cm" y2="3.4cm" /><line x1="10.5268186075cm" x2="10.4740821062cm" y1="3.4cm" y2="3.32cm" /><line x1="10.4740821062cm" x2="10.4178471cm" y1="3.32cm" y2="3.24cm" /><line x1="10.4178471cm" x2="10.3579555339cm" y1="3.24cm" y2="3.16cm" /><line x1="10.3579555339cm" x2="10.294234982cm" y1="3.16cm" y2="3.08cm" /><line x1="10.294234982cm" x2="10.2264973081cm" y1="3.08cm" y2="3.0cm" /><line x1="10.2264973081cm" x2="10.154537157cm" y1="3.0cm" y2="2.92cm" /><line x1="10.154537157cm" x2="10.0781302513cm" y1="2.92cm" y2="2.84cm" /><line x1="10.0781302513cm" x2="9.99703146514cm" y1="2.84cm" y2="2.76cm" /><line x1="9.99703146514cm" x2="9.91097264129cm" y1="2.76cm" y2="2.68cm" /><line x1="9.91097264129cm" x2="9.8196601125cm" y1="2.68cm" y2="2.6cm" /><line x1="9.8196601125cm" x2="9.7227718798cm" y1="2.6cm" y2="2.52cm" /><line x1="9.7227718798cm" x2="9.61995439255cm" y1="2.52cm" y2="2.44cm" /><line x1="9.61995439255cm" x2="9.51081886408cm" y1="2.44cm" y2="2.36cm" /><line x1="9.51081886408cm" x2="9.39493704395cm" y1="2.36cm" y2="2.28cm" /><line x1="9.39493704395cm" x2="9.27183635197cm" y1="2.28cm" y2="2.2cm" /><line x1="9.27183635197cm" x2="9.14099425968cm" y1="2.2cm" y2="2.12cm" /><line x1="9.14099425968cm" x2="9.00183178093cm" y1="2.12cm" y2="2.04cm" /><line x1="9.00183178093cm" x2="8.85370590328cm" y1="2.04cm" y2="1.96cm" /><line x1="8.85370590328cm" x2="8.69590075439cm" y1="1.96cm" y2="1.88cm" /><line x1="8.69590075439cm" x2="8.52761725068cm" y1="1.88cm" y2="1.8cm" /><line x1="8.52761725068cm" x2="8.34796091604cm" y1="1.8cm" y2="1.72cm" /><line x1="8.34796091604cm" x2="8.15592748247cm" y1="1.72cm" y2="1.64cm" /><line x1="8.15592748247cm" x2="7.95038578781cm" y1="1.64cm" y2="1.56cm" /><line x1="7.95038578781cm" x2="7.73005736018cm" y1="1.56cm" y2="1.48cm" /><line x1="7.73005736018cm" x2="7.49349191648cm" y1="1.48cm" y2="1.4cm" /><line x1="7.49349191648cm" x2="7.23903778863cm" y1="1.4cm" y2="1.32cm" /><line x1="7.23903778863cm" x2="6.96480600971cm" y1="1.32cm" y2="1.24cm" /><line x1="6.96480600971cm" x2="6.6686264165cm" y1="1.24cm" y2="1.16cm" /><line x1="6.6686264165cm" x2="6.347993619cm" y1="1.16cm" y2="1.08cm" /><line x1="6.347993619cm" x2="6.0cm" y1="1.08cm" y2="1.0cm" /><line x1="18.5cm" x2="18.5005484116cm" y1="5.0cm" y2="4.92cm" /><line x1="18.5005484116cm" x2="18.50219485cm" y1="4.92cm" y2="4.84cm" /><line x1="18.50219485cm" x2="18.5049429327cm" y1="4.84cm" y2="4.76cm" /><line x1="18.5049429327cm" x2="18.5087987102cm" y1="4.76cm" y2="4.68cm" /><line x1="18.5087987102cm" x2="18.5137706989cm" y1="4.68cm" y2="4.6cm" /><line x1="18.5137706989cm" x2="18.519869927cm" y1="4.6cm" y2="4.52cm" /><line x1="18.519869927cm" x2="18.5271099946cm" y1="4.52cm" y2="4.44cm" /><line x1="18.5271099946cm" x2="18.5355071481cm" y1="4.44cm" y2="4.36cm" /><line x1="18.5355071481cm" x2="18.5450803705cm" y1="4.36cm" y2="4.28cm" /><line x1="18.5450803705cm" x2="18.5558514872cm" y1="4.28cm" y2="4.2cm" /><line x1="18.5558514872cm" x2="18.5678452898cm" y1="4.2cm" y2="4.12cm" /><line x1="18.5678452898cm" x2="18.5810896785cm" y1="4.12cm" y2="4.04cm" /><line x1="18.5810896785cm" x2="18.5956158246cm" y1="4.04cm" y2="3.96cm" /><line x1="18.5956158246cm" x2="18.6114583548cm" y1="3.96cm" y2="3.88cm" /><line x1="18.6114583548cm" x2="18.6286555606cm" y1="3.88cm" y2="3.8cm" /><line x1="18.6286555606cm" x2="18.6472496335cm" y1="3.8cm" y2="3.72cm" /><line x1="18.6472496335cm" x2="18.6672869297cm" y1="3.72cm" y2="3.64cm" /><line x1="18.6672869297cm" x2="18.6888182676cm" y1="3.64cm" y2="3.56cm" /><line x1="18.6888182676cm" x2="18.7118992615cm" y1="3.56cm" y2="3.48cm" /><line x1="18.7118992615cm" x2="18.7365906963cm" y1="3.48cm" y2="3.4cm" /><line x1="18.7365906963cm" x2="18.7629589469cm" y1="3.4cm" y2="3.32cm" /><line x1="18.7629589469cm" x2="18.79107645cm" y1="3.32cm" y2="3.24cm" /><line x1="18.79107645cm" x2="18.821022233cm" y1="3.24cm" y2="3.16cm" /><line x1="18.821022233cm" x2="18.852882509cm" y1="3.16cm" y2="3.08cm" /><line x1="18.852882509cm" x2="18.8867513459cm" y1="3.08cm" y2="3.0cm" /><line x1="18.8867513459cm" x2="18.9227314215cm" y1="3.0cm" y2="2.92cm" /><line x1="18.9227314215cm" x2="18.9609348743cm" y1="2.92cm" y2="2.84cm" /><line x1="18.9609348743cm" x2="19.0014842674cm" y1="2.84cm" y2="2.76cm" /><line x1="19.0014842674cm" x2="19.0445136794cm" y1="2.76cm" y2="2.68cm" /><line x1="19.0445136794cm" x2="19.0901699437cm" y1="2.68cm" y2="2.6cm" /><line x1="19.0901699437cm" x2="19.1386140601cm" y1="2.6cm" y2="2.52cm" /><line x1="19.1386140601cm" x2="19.1900228037cm" y1="2.52cm" y2="2.44cm" /><line x1="19.1900228037cm" x2="19.244590568cm" y1="2.44cm" y2="2.36cm" /><line x1="19.244590568cm" x2="19.302531478cm" y1="2.36cm" y2="2.28cm" /><line x1="19.302531478cm" x2="19.364081824cm" y1="2.28cm" y2="2.2cm" /><line x1="19.364081824cm" x2="19.4295028702cm" y1="2.2cm" y2="2.12cm" /><line x1="19.4295028702cm" x2="19.4990841095cm" y1="2.12cm" y2="2.04cm" /><line x1="19.4990841095cm" x2="19.5731470484cm" y1="2.04cm" y2="1.96cm" /><line x1="19.5731470484cm" x2="19.6520496228cm" y1="1.96cm" y2="1.88cm" /><line x1="19.6520496228cm" x2="19.7361913747cm" y1="1.88cm" y2="1.8cm" /><line x1="19.7361913747cm" x2="19.826019542cm" y1="1.8cm" y2="1.72cm" /><line x1="19.826019542cm" x2="19.9220362588cm" y1="1.72cm" y2="1.64cm" /><line x1="19.9220362588cm" x2="20.0248071061cm" y1="1.64cm" y2="1.56cm" /><line x1="20.0248071061cm" x2="20.1349713199cm" y1="1.56cm" y2="1.48cm" /><line x1="20.1349713199cm" x2="20.2532540418cm" y1="1.48cm" y2="1.4cm" /><line x1="20.2532540418cm" x2="20.3804811057cm" y1="1.4cm" y2="1.32cm" /><line x1="20.3804811057cm" x2="20.5175969951cm" y1="1.32cm" y2="1.24cm" /><line x1="20.5175969951cm" x2="20.6656867918cm" y1="1.24cm" y2="1.16cm" /><line x1="20.6656867918cm" x2="20.8260031905cm" y1="1.16cm" y2="1.08cm" /><line x1="20.8260031905cm" x2="21.0cm" y1="1.08cm" y2="1.0cm" /><line x1="13.5cm" x2="13.4994515884cm" y1="5.0cm" y2="4.92cm" /><line x1="13.4994515884cm" x2="13.49780515cm" y1="4.92cm" y2="4.84cm" /><line x1="13.49780515cm" x2="13.4950570673cm" y1="4.84cm" y2="4.76cm" /><line x1="13.4950570673cm" x2="13.4912012898cm" y1="4.76cm" y2="4.68cm" /><line x1="13.4912012898cm" x2="13.4862293011cm" y1="4.68cm" y2="4.6cm" /><line x1="13.4862293011cm" x2="13.480130073cm" y1="4.6cm" y2="4.52cm" /><line x1="13.480130073cm" x2="13.4728900054cm" y1="4.52cm" y2="4.44cm" /><line x1="13.4728900054cm" x2="13.4644928519cm" y1="4.44cm" y2="4.36cm" /><line x1="13.4644928519cm" x2="13.4549196295cm" y1="4.36cm" y2="4.28cm" /><line x1="13.4549196295cm" x2="13.4441485128cm" y1="4.28cm" y2="4.2cm" /><line x1="13.4441485128cm" x2="13.4321547102cm" y1="4.2cm" y2="4.12cm" /><line x1="13.4321547102cm" x2="13.4189103215cm" y1="4.12cm" y2="4.04cm" /><line x1="13.4189103215cm" x2="13.4043841754cm" y1="4.04cm" y2="3.96cm" /><line x1="13.4043841754cm" x2="13.3885416452cm" y1="3.96cm" y2="3.88cm" /><line x1="13.3885416452cm" x2="13.3713444394cm" y1="3.88cm" y2="3.8cm" /><line x1="13.3713444394cm" x2="13.3527503665cm" y1="3.8cm" y2="3.72cm" /><line x1="13.3527503665cm" x2="13.3327130703cm" y1="3.72cm" y2="3.64cm" /><line x1="13.3327130703cm" x2="13.3111817324cm" y1="3.64cm" y2="3.56cm" /><line x1="13.3111817324cm" x2="13.2881007385cm" y1="3.56cm" y2="3.48cm" /><line x1="13.2881007385cm" x2="13.2634093037cm" y1="3.48cm" y2="3.4cm" /><line x1="13.2634093037cm" x2="13.2370410531cm" y1="3.4cm" y2="3.32cm" /><line x1="13.2370410531cm" x2="13.20892355cm" y1="3.32cm" y2="3.24cm" /><line x1="13.20892355cm" x2="13.178977767cm" y1="3.24cm" y2="3.16cm" /><line x1="13.178977767cm" x2="13.147117491cm" y1="3.16cm" y2="3.08cm" /><line x1="13.147117491cm" x2="13.1132486541cm" y1="3.08cm" y2="3.0cm" /><line x1="13.1132486541cm" x2="13.0772685785cm" y1="3.0cm" y2="2.92cm" /><line x1="13.0772685785cm" x2="13.0390651257cm" y1="2.92cm" y2="2.84cm" /><line x1="13.0390651257cm" x2="12.9985157326cm" y1="2.84cm" y2="2.76cm" /><line x1="12.9985157326cm" x2="12.9554863206cm" y1="2.76cm" y2="2.68cm" /><line x1="12.9554863206cm" x2="12.9098300563cm" y1="2.68cm" y2="2.6cm" /><line x1="12.9098300563cm" x2="12.8613859399cm" y1="2.6cm" y2="2.52cm" /><line x1="12.8613859399cm" x2="12.8099771963cm" y1="2.52cm" y2="2.44cm" /><line x1="12.8099771963cm" x2="12.755409432cm" y1="2.44cm" y2="2.36cm" /><line x1="12.755409432cm" x2="12.697468522cm" y1="2.36cm" y2="2.28cm" /><line x1="12.697468522cm" x2="12.635918176cm" y1="2.28cm" y2="2.2cm" /><line x1="12.635918176cm" x2="12.5704971298cm" y1="2.2cm" y2="2.12cm" /><line x1="12.5704971298cm" x2="12.5009158905cm" y1="2.12cm" y2="2.04cm" /><line x1="12.5009158905cm" x2="12.4268529516cm" y1="2.04cm" y2="1.96cm" /><line x1="12.4268529516cm" x2="12.3479503772cm" y1="1.96cm" y2="1.88cm" /><line x1="12.3479503772cm" x2="12.2638086253cm" y1="1.88cm" y2="1.8cm" /><line x1="12.2638086253cm" x2="12.173980458cm" y1="1.8cm" y2="1.72cm" /><line x1="12.173980458cm" x2="12.0779637412cm" y1="1.72cm" y2="1.64cm" /><line x1="12.0779637412cm" x2="11.9751928939cm" y1="1.64cm" y2="1.56cm" /><line x1="11.9751928939cm" x2="11.8650286801cm" y1="1.56cm" y2="1.48cm" /><line x1="11.8650286801cm" x2="11.7467459582cm" y1="1.48cm" y2="1.4cm" /><line x1="11.7467459582cm" x2="11.6195188943cm" y1="1.4cm" y2="1.32cm" /><line x1="11.6195188943cm" x2="11.4824030049cm" y1="1.32cm" y2="1.24cm" /><line x1="11.4824030049cm" x2="11.3343132082cm" y1="1.24cm" y2="1.16cm" /><line x1="11.3343132082cm" x2="11.1739968095cm" y1="1.16cm" y2="1.08cm" /><line x1="11.1739968095cm" x2="11.0cm" y1="1.08cm" y2="1.0cm" /><line x1="17.25cm" x2="17.2502742058cm" y1="5.0cm" y2="4.92cm" /><line x1="17.2502742058cm" x2="17.251097425cm" y1="4.92cm" y2="4.84cm" /><line x1="17.251097425cm" x2="17.2524714663cm" y1="4.84cm" y2="4.76cm" /><line x1="17.2524714663cm" x2="17.2543993551cm" y1="4.76cm" y2="4.68cm" /><line x1="17.2543993551cm" x2="17.2568853495cm" y1="4.68cm" y2="4.6cm" /><line x1="17.2568853495cm" x2="17.2599349635cm" y1="4.6cm" y2="4.52cm" /><line x1="17.2599349635cm" x2="17.2635549973cm" y1="4.52cm" y2="4.44cm" /><line x1="17.2635549973cm" x2="17.2677535741cm" y1="4.44cm" y2="4.36cm" /><line x1="17.2677535741cm" x2="17.2725401852cm" y1="4.36cm" y2="4.28cm" /><line x1="17.2725401852cm" x2="17.2779257436cm" y1="4.28cm" y2="4.2cm" /><line x1="17.2779257436cm" x2="17.2839226449cm" y1="4.2cm" y2="4.12cm" /><line x1="17.2839226449cm" x2="17.2905448393cm" y1="4.12cm" y2="4.04cm" /><line x1="17.2905448393cm" x2="17.2978079123cm" y1="4.04cm" y2="3.96cm" /><line x1="17.2978079123cm" x2="17.3057291774cm" y1="3.96cm" y2="3.88cm" /><line x1="17.3057291774cm" x2="17.3143277803cm" y1="3.88cm" y2="3.8cm" /><line x1="17.3143277803cm" x2="17.3236248168cm" y1="3.8cm" y2="3.72cm" /><line x1="17.3236248168cm" x2="17.3336434648cm" y1="3.72cm" y2="3.64cm" /><line x1="17.3336434648cm" x2="17.3444091338cm" y1="3.64cm" y2="3.56cm" /><line x1="17.3444091338cm" x2="17.3559496308cm" y1="3.56cm" y2="3.48cm" /><line x1="17.3559496308cm" x2="17.3682953481cm" y1="3.48cm" y2="3.4cm" /><line x1="17.3682953481cm" x2="17.3814794734cm" y1="3.4cm" y2="3.32cm" /><line x1="17.3814794734cm" x2="17.395538225cm" y1="3.32cm" y2="3.24cm" /><line x1="17.395538225cm" x2="17.4105111165cm" y1="3.24cm" y2="3.16cm" /><line x1="17.4105111165cm" x2="17.4264412545cm" y1="3.16cm" y2="3.08cm" /><line x1="17.4264412545cm" x2="17.443375673cm" y1="3.08cm" y2="3.0cm" /><line x1="17.443375673cm" x2="17.4613657108cm" y1="3.0cm" y2="2.92cm" /><line x1="17.4613657108cm" x2="17.4804674372cm" y1="2.92cm" y2="2.84cm" /><line x1="17.4804674372cm" x2="17.5007421337cm" y1="2.84cm" y2="2.76cm" /><line x1="17.5007421337cm" x2="17.5222568397cm" y1="2.76cm" y2="2.68cm" /><line x1="17.5222568397cm" x2="17.5450849719cm" y1="2.68cm" y2="2.6cm" /><line x1="17.5450849719cm" x2="17.56930703cm" y1="2.6cm" y2="2.52cm" /><line x1="17.56930703cm" x2="17.5950114019cm" y1="2.52cm" y2="2.44cm" /><line x1="17.5950114019cm" x2="17.622295284cm" y1="2.44cm" y2="2.36cm" /><line x1="17.622295284cm" x2="17.651265739cm" y1="2.36cm" y2="2.28cm" /><line x1="17.651265739cm" x2="17.682040912cm" y1="2.28cm" y2="2.2cm" /><line x1="17.682040912cm" x2="17.7147514351cm" y1="2.2cm" y2="2.12cm" /><line x1="17.7147514351cm" x2="17.7495420548cm" y1="2.12cm" y2="2.04cm" /><line x1="17.7495420548cm" x2="17.7865735242cm" y1="2.04cm" y2="1.96cm" /><line x1="17.7865735242cm" x2="17.8260248114cm" y1="1.96cm" y2="1.88cm" /><line x1="17.8260248114cm" x2="17.8680956873cm" y1="1.88cm" y2="1.8cm" /><line x1="17.8680956873cm" x2="17.913009771cm" y1="1.8cm" y2="1.72cm" /><line x1="17.913009771cm" x2="17.9610181294cm" y1="1.72cm" y2="1.64cm" /><line x1="17.9610181294cm" x2="18.012403553cm" y1="1.64cm" y2="1.56cm" /><line x1="18.012403553cm" x2="18.06748566cm" y1="1.56cm" y2="1.48cm" /><line x1="18.06748566cm" x2="18.1266270209cm" y1="1.48cm" y2="1.4cm" /><line x1="18.1266270209cm" x2="18.1902405528cm" y1="1.4cm" y2="1.32cm" /><line x1="18.1902405528cm" x2="18.2587984976cm" y1="1.32cm" y2="1.24cm" /><line x1="18.2587984976cm" x2="18.3328433959cm" y1="1.24cm" y2="1.16cm" /><line x1="18.3328433959cm" x2="18.4130015953cm" y1="1.16cm" y2="1.08cm" /><line x1="18.4130015953cm" x2="18.5cm" y1="1.08cm" y2="1.0cm" /><line x1="14.75cm" x2="14.7497257942cm" y1="5.0cm" y2="4.92cm" /><line x1="14.7497257942cm" x2="14.748902575cm" y1="4.92cm" y2="4.84cm" /><line x1="14.748902575cm" x2="14.7475285337cm" y1="4.84cm" y2="4.76cm" /><line x1="14.7475285337cm" x2="14.7456006449cm" y1="4.76cm" y2="4.68cm" /><line x1="14.7456006449cm" x2="14.7431146505cm" y1="4.68cm" y2="4.6cm" /><line x1="14.7431146505cm" x2="14.7400650365cm" y1="4.6cm" y2="4.52cm" /><line x1="14.7400650365cm" x2="14.7364450027cm" y1="4.52cm" y2="4.44cm" /><line x1="14.7364450027cm" x2="14.7322464259cm" y1="4.44cm" y2="4.36cm" /><line x1="14.7322464259cm" x2="14.7274598148cm" y1="4.36cm" y2="4.28cm" /><line x1="14.7274598148cm" x2="14.7220742564cm" y1="4.28cm" y2="4.2cm" /><line x1="14.7220742564cm" x2="14.7160773551cm" y1="4.2cm" y2="4.12cm" /><line x1="14.7160773551cm" x2="14.7094551607cm" y1="4.12cm" y2="4.04cm" /><line x1="14.7094551607cm" x2="14.7021920877cm" y1="4.04cm" y2="3.96cm" /><line x1="14.7021920877cm" x2="14.6942708226cm" y1="3.96cm" y2="3.88cm" /><line x1="14.6942708226cm" x2="14.6856722197cm" y1="3.88cm" y2="3.8cm" /><line x1="14.6856722197cm" x2="14.6763751832cm" y1="3.8cm" y2="3.72cm" /><line x1="14.6763751832cm" x2="14.6663565352cm" y1="3.72cm" y2="3.64cm" /><line x1="14.6663565352cm" x2="14.6555908662cm" y1="3.64cm" y2="3.56cm" /><line x1="14.6555908662cm" x2="14.6440503692cm" y1="3.56cm" y2="3.48cm" /><line x1="14.6440503692cm" x2="14.6317046519cm" y1="3.48cm" y2="3.4cm" /><line x1="14.6317046519cm" x2="14.6185205266cm" y1="3.4cm" y2="3.32cm" /><line x1="14.6185205266cm" x2="14.604461775cm" y1="3.32cm" y2="3.24cm" /><line x1="14.604461775cm" x2="14.5894888835cm" y1="3.24cm" y2="3.16cm" /><line x1="14.5894888835cm" x2="14.5735587455cm" y1="3.16cm" y2="3.08cm" /><line x1="14.5735587455cm" x2="14.556624327cm" y1="3.08cm" y2="3.0cm" /><line x1="14.556624327cm" x2="14.5386342892cm" y1="3.0cm" y2="2.92cm" /><line x1="14.5386342892cm" x2="14.5195325628cm" y1="2.92cm" y2="2.84cm" /><line x1="14.5195325628cm" x2="14.4992578663cm" y1="2.84cm" y2="2.76cm" /><line x1="14.4992578663cm" x2="14.4777431603cm" y1="2.76cm" y2="2.68cm" /><line x1="14.4777431603cm" x2="14.4549150281cm" y1="2.68cm" y2="2.6cm" /><line x1="14.4549150281cm" x2="14.43069297cm" y1="2.6cm" y2="2.52cm" /><line x1="14.43069297cm" x2="14.4049885981cm" y1="2.52cm" y2="2.44cm" /><line x1="14.4049885981cm" x2="14.377704716cm" y1="2.44cm" y2="2.36cm" /><line x1="14.377704716cm" x2="14.348734261cm" y1="2.36cm" y2="2.28cm" /><line x1="14.348734261cm" x2="14.317959088cm" y1="2.28cm" y2="2.2cm" /><line x1="14.317959088cm" x2="14.2852485649cm" y1="2.2cm" y2="2.12cm" /><line x1="14.2852485649cm" x2="14.2504579452cm" y1="2.12cm" y2="2.04cm" /><line x1="14.2504579452cm" x2="14.2134264758cm" y1="2.04cm" y2="1.96cm" /><line x1="14.2134264758cm" x2="14.1739751886cm" y1="1.96cm" y2="1.88cm" /><line x1="14.1739751886cm" x2="14.1319043127cm" y1="1.88cm" y2="1.8cm" /><line x1="14.1319043127cm" x2="14.086990229cm" y1="1.8cm" y2="1.72cm" /><line x1="14.086990229cm" x2="14.0389818706cm" y1="1.72cm" y2="1.64cm" /><line x1="14.0389818706cm" x2="13.987596447cm" y1="1.64cm" y2="1.56cm" /><line x1="13.987596447cm" x2="13.93251434cm" y1="1.56cm" y2="1.48cm" /><line x1="13.93251434cm" x2="13.8733729791cm" y1="1.48cm" y2="1.4cm" /><line x1="13.8733729791cm" x2="13.8097594472cm" y1="1.4cm" y2="1.32cm" /><line x1="13.8097594472cm" x2="13.7412015024cm" y1="1.32cm" y2="1.24cm" /><line x1="13.7412015024cm" x2="13.6671566041cm" y1="1.24cm" y2="1.16cm" /><line x1="13.6671566041cm" x2="13.5869984047cm" y1="1.16cm" y2="1.08cm" /><line x1="13.5869984047cm" x2="13.5cm" y1="1.08cm" y2="1.0cm" /></g><text x="23.5cm" y="5.3cm">75km</text><text x="8.5cm" y="5.3cm">75km</text><text x="21.0cm" y="5.3cm">50km</text><text x="11.0cm" y="5.3cm">50km</text><text x="18.5cm" y="5.3cm">25km</text><text x="13.5cm" y="5.3cm">25km</text><g id="horizontal_tick" stroke="black"><line x1="16.0cm" x2="31.0cm" y1="5.0cm" y2="5.0cm" /><line x1="1.0cm" x2="16.0cm" y1="5.0cm" y2="5.0cm" /><line x1="16.0cm" x2="31.0cm" y1="4.33333333333cm" y2="4.33333333333cm" /><line x1="1.0cm" x2="16.0cm" y1="4.33333333333cm" y2="4.33333333333cm" /><line x1="16.0cm" x2="31.0cm" y1="3.66666666667cm" y2="3.66666666667cm" /><line x1="1.0cm" x2="16.0cm" y1="3.66666666667cm" y2="3.66666666667cm" /><line x1="16.0cm" x2="31.0cm" y1="3.0cm" y2="3.0cm" /><line x1="1.0cm" x2="16.0cm" y1="3.0cm" y2="3.0cm" /><line x1="16.0cm" x2="31.0cm" y1="2.33333333333cm" y2="2.33333333333cm" /><line x1="1.0cm" x2="16.0cm" y1="2.33333333333cm" y2="2.33333333333cm" /><line x1="16.0cm" x2="31.0cm" y1="1.66666666667cm" y2="1.66666666667cm" /><line x1="1.0cm" x2="16.0cm" y1="1.66666666667cm" y2="1.66666666667cm" /><line x1="16.0cm" x2="31.0cm" y1="1.0cm" y2="1.0cm" /><line x1="1.0cm" x2="16.0cm" y1="1.0cm" y2="1.0cm" /></g></svg>